{"glyphs":{"0":{"ha":833,"x_min":57,"x_max":826,"o":"m 363 -17 q 137 90 217 -17 q 57 386 57 197 q 88 605 57 497 q 177 799 118 713 q 323 938 236 886 q 521 989 410 989 q 747 882 667 989 q 826 586 826 775 q 796 367 826 474 q 706 173 765 260 q 560 35 647 86 q 363 -17 474 -17 m 210 401 q 232 246 210 311 l 572 835 q 507 851 543 851 q 385 811 440 851 q 291 705 331 771 q 231 559 251 639 q 210 401 210 479 m 376 119 q 498 160 443 119 q 592 267 553 200 q 653 413 632 333 q 674 571 674 493 q 651 726 674 661 l 310 136 q 376 119 340 119 z "},"1":{"ha":833,"x_min":31,"x_max":700,"o":"m 31 0 l 54 132 l 294 132 l 410 793 l 175 751 l 197 876 l 500 972 l 590 972 l 442 132 l 700 132 l 676 0 l 31 0 z "},"2":{"ha":833,"x_min":36,"x_max":794,"o":"m 36 0 l 57 117 q 356 326 224 226 q 565 519 489 426 q 642 701 642 613 q 601 815 642 774 q 490 856 561 856 q 360 804 410 856 q 300 675 311 753 l 157 675 q 267 907 181 825 q 508 989 353 989 q 720 913 646 989 q 794 717 794 838 q 751 540 794 622 q 633 385 707 457 q 471 249 560 314 q 292 126 382 185 l 715 126 l 693 0 l 36 0 z "},"3":{"ha":833,"x_min":58,"x_max":792,"o":"m 379 -17 q 205 23 279 -17 q 94 133 131 63 q 68 296 58 204 l 215 296 q 253 169 206 219 q 386 119 301 119 q 549 167 489 119 q 608 299 608 214 q 554 415 608 376 q 417 453 500 453 l 333 453 l 357 583 l 433 583 q 584 622 526 583 q 642 736 642 661 q 606 821 642 789 q 501 853 569 853 q 379 814 428 853 q 318 710 331 775 l 172 710 q 282 913 193 838 q 514 989 371 989 q 669 957 607 989 q 761 871 731 925 q 792 751 792 817 q 740 604 792 657 q 615 526 689 551 l 614 518 q 714 444 672 494 q 756 311 756 393 q 658 73 756 163 q 379 -17 560 -17 z "},"4":{"ha":833,"x_min":40,"x_max":799,"o":"m 464 0 l 501 210 l 40 210 l 61 325 l 600 972 l 783 972 l 671 343 l 799 343 l 775 210 l 649 210 l 611 0 l 464 0 m 233 343 l 533 343 l 615 807 l 233 343 z "},"5":{"ha":833,"x_min":85,"x_max":833,"o":"m 407 -17 q 235 21 307 -17 q 124 124 163 58 q 85 271 86 189 l 235 271 q 287 163 238 207 q 413 119 336 119 q 585 188 525 119 q 646 361 646 256 q 597 490 646 442 q 471 538 549 538 q 349 506 401 538 q 265 425 297 474 l 124 425 l 294 972 l 833 972 l 810 836 l 396 836 l 306 588 l 315 588 q 396 644 347 622 q 514 665 444 665 q 660 628 599 665 q 756 526 722 592 q 790 375 790 461 q 747 176 790 265 q 617 35 703 88 q 407 -17 532 -17 z "},"6":{"ha":833,"x_min":71,"x_max":826,"o":"m 403 -17 q 213 33 286 -17 q 105 172 139 83 q 71 372 71 260 q 103 597 71 488 q 198 796 136 707 q 348 937 260 885 q 547 989 436 989 q 755 914 685 989 q 826 715 825 839 l 689 715 q 640 818 685 781 q 526 856 596 856 q 399 814 460 856 q 291 692 338 772 q 221 497 244 613 l 231 497 q 329 588 265 550 q 486 625 393 625 q 625 590 563 625 q 724 491 688 554 q 761 343 761 428 q 713 158 761 239 q 584 30 665 76 q 403 -17 503 -17 m 394 117 q 507 144 458 117 q 584 221 556 172 q 613 329 613 269 q 567 447 613 401 q 446 493 522 493 q 290 433 349 493 q 231 286 231 374 q 276 165 231 214 q 394 117 322 117 z "},"7":{"ha":833,"x_min":161,"x_max":853,"o":"m 161 0 l 668 839 l 168 839 l 193 972 l 853 972 l 833 858 l 322 0 l 161 0 z "},"8":{"ha":833,"x_min":64,"x_max":796,"o":"m 374 -17 q 206 19 275 -17 q 100 118 136 56 q 64 258 64 181 q 122 422 64 353 q 269 518 181 490 l 272 526 q 201 599 232 553 q 169 706 169 646 q 213 856 169 793 q 333 954 256 919 q 513 989 410 989 q 666 957 603 989 q 763 871 729 925 q 796 751 796 817 q 750 608 796 671 q 632 518 704 546 l 629 508 q 708 435 674 486 q 742 307 742 385 q 695 140 742 213 q 566 25 649 67 q 374 -17 483 -17 m 464 571 q 600 615 547 571 q 653 731 653 660 q 611 824 653 788 q 500 860 569 860 q 365 817 417 860 q 314 703 314 774 q 355 608 314 646 q 464 571 396 571 m 381 117 q 537 167 478 117 q 596 303 596 218 q 551 410 596 371 q 432 450 507 450 q 273 401 335 450 q 211 267 211 353 q 259 158 211 199 q 381 117 307 117 z "},"9":{"ha":833,"x_min":63,"x_max":818,"o":"m 354 -17 q 141 59 217 -17 q 63 257 65 135 l 204 257 q 252 156 211 196 q 365 117 293 117 q 551 209 468 117 q 668 475 635 301 l 658 475 q 567 385 625 422 q 410 347 508 347 q 268 383 332 347 q 166 482 204 418 q 128 632 128 546 q 176 818 128 738 q 308 944 225 899 q 489 989 390 989 q 679 939 607 989 q 785 801 751 889 q 818 600 818 714 q 788 375 818 485 q 699 176 758 265 q 553 35 640 88 q 354 -17 467 -17 m 443 479 q 600 539 542 479 q 658 686 658 599 q 613 808 658 760 q 492 856 567 856 q 335 796 394 856 q 276 644 276 736 q 322 526 276 572 q 443 479 367 479 z "},"A":{"ha":833,"x_min":-22,"x_max":733,"o":"m -22 0 l 438 972 l 615 972 l 733 0 l 579 0 l 554 233 l 251 233 l 146 0 l -22 0 m 492 764 l 306 351 l 542 351 l 499 764 l 492 764 z "},"Á":{"ha":833,"x_min":-22,"x_max":801,"o":"m -22 0 l 438 972 l 615 972 l 733 0 l 579 0 l 554 233 l 251 233 l 146 0 l -22 0 m 492 764 l 306 351 l 542 351 l 499 764 l 492 764 z "},"Ă":{"ha":833,"x_min":-22,"x_max":786,"o":"m -22 0 l 438 972 l 615 972 l 733 0 l 579 0 l 554 233 l 251 233 l 146 0 l -22 0 m 492 764 l 306 351 l 542 351 l 499 764 l 492 764 z "},"Â":{"ha":833,"x_min":-22,"x_max":756,"o":"m -22 0 l 438 972 l 615 972 l 733 0 l 579 0 l 554 233 l 251 233 l 146 0 l -22 0 m 492 764 l 306 351 l 542 351 l 499 764 l 492 764 z "},"Ä":{"ha":833,"x_min":-22,"x_max":778,"o":"m -22 0 l 438 972 l 615 972 l 733 0 l 579 0 l 554 233 l 251 233 l 146 0 l -22 0 m 492 764 l 306 351 l 542 351 l 499 764 l 492 764 z "},"À":{"ha":833,"x_min":-22,"x_max":733,"o":"m -22 0 l 438 972 l 615 972 l 733 0 l 579 0 l 554 233 l 251 233 l 146 0 l -22 0 m 492 764 l 306 351 l 542 351 l 499 764 l 492 764 z "},"Ā":{"ha":833,"x_min":-22,"x_max":806,"o":"m -22 0 l 438 972 l 615 972 l 733 0 l 579 0 l 554 233 l 251 233 l 146 0 l -22 0 m 492 764 l 306 351 l 542 351 l 499 764 l 492 764 z "},"Ą":{"ha":833,"x_min":-22,"x_max":733,"o":"m -22 0 l 438 972 l 615 972 l 733 0 l 579 0 l 554 233 l 251 233 l 146 0 l -22 0 m 492 764 l 306 351 l 542 351 l 499 764 l 492 764 z "},"Å":{"ha":833,"x_min":-22,"x_max":733,"o":"m -22 0 l 438 972 l 615 972 l 733 0 l 579 0 l 554 233 l 251 233 l 146 0 l -22 0 m 492 764 l 306 351 l 542 351 l 499 764 l 492 764 z "},"Ã":{"ha":833,"x_min":-22,"x_max":806,"o":"m -22 0 l 438 972 l 615 972 l 733 0 l 579 0 l 554 233 l 251 233 l 146 0 l -22 0 m 492 764 l 306 351 l 542 351 l 499 764 l 492 764 z "},"Æ":{"ha":833,"x_min":-61,"x_max":936,"o":"m -61 0 l 401 972 l 936 972 l 913 840 l 651 840 l 601 557 l 821 557 l 797 426 l 579 426 l 526 132 l 788 132 l 764 0 l 356 0 l 397 233 l 210 233 l 104 0 l -61 0 m 486 840 l 264 351 l 418 351 l 504 840 l 486 840 z "},"Ǽ":{"ha":833,"x_min":-61,"x_max":936,"o":"m -61 0 l 401 972 l 936 972 l 913 840 l 651 840 l 601 557 l 821 557 l 797 426 l 579 426 l 526 132 l 788 132 l 764 0 l 356 0 l 397 233 l 210 233 l 104 0 l -61 0 m 486 840 l 264 351 l 418 351 l 504 840 l 486 840 z "},"B":{"ha":833,"x_min":17,"x_max":794,"o":"m 17 0 l 189 972 l 525 972 q 726 909 658 972 q 794 743 794 846 q 744 593 794 654 q 615 504 694 532 l 614 494 q 706 422 668 472 q 744 293 744 371 q 645 78 744 156 q 375 0 546 0 l 17 0 m 264 567 l 446 567 q 590 606 540 567 q 639 721 639 644 q 483 842 639 842 l 313 842 l 264 567 m 188 136 l 381 136 q 538 178 479 136 q 597 300 597 221 q 552 405 596 368 q 431 442 508 442 l 242 442 l 188 136 z "},"C":{"ha":833,"x_min":53,"x_max":843,"o":"m 371 -17 q 134 92 215 -17 q 53 386 53 201 q 84 608 53 500 q 176 801 115 715 q 326 938 236 888 q 533 989 417 989 q 766 902 689 989 q 836 672 843 815 l 674 672 q 634 799 675 749 q 507 850 593 850 q 382 812 438 850 q 287 709 326 774 q 226 566 247 644 q 204 406 204 488 q 251 197 204 271 q 392 122 299 122 q 528 169 474 122 q 607 292 582 215 l 769 292 q 629 65 728 146 q 371 -17 531 -17 z "},"Ć":{"ha":833,"x_min":53,"x_max":843,"o":"m 371 -17 q 134 92 215 -17 q 53 386 53 201 q 84 608 53 500 q 176 801 115 715 q 326 938 236 888 q 533 989 417 989 q 766 902 689 989 q 836 672 843 815 l 674 672 q 634 799 675 749 q 507 850 593 850 q 382 812 438 850 q 287 709 326 774 q 226 566 247 644 q 204 406 204 488 q 251 197 204 271 q 392 122 299 122 q 528 169 474 122 q 607 292 582 215 l 769 292 q 629 65 728 146 q 371 -17 531 -17 z "},"Č":{"ha":833,"x_min":53,"x_max":843,"o":"m 371 -17 q 134 92 215 -17 q 53 386 53 201 q 84 608 53 500 q 176 801 115 715 q 326 938 236 888 q 533 989 417 989 q 766 902 689 989 q 836 672 843 815 l 674 672 q 634 799 675 749 q 507 850 593 850 q 382 812 438 850 q 287 709 326 774 q 226 566 247 644 q 204 406 204 488 q 251 197 204 271 q 392 122 299 122 q 528 169 474 122 q 607 292 582 215 l 769 292 q 629 65 728 146 q 371 -17 531 -17 z "},"Ç":{"ha":833,"x_min":53,"x_max":843,"o":"m 371 -17 q 134 92 215 -17 q 53 386 53 201 q 84 608 53 500 q 176 801 115 715 q 326 938 236 888 q 533 989 417 989 q 766 902 689 989 q 836 672 843 815 l 674 672 q 634 799 675 749 q 507 850 593 850 q 382 812 438 850 q 287 709 326 774 q 226 566 247 644 q 204 406 204 488 q 251 197 204 271 q 392 122 299 122 q 528 169 474 122 q 607 292 582 215 l 769 292 q 629 65 728 146 q 371 -17 531 -17 z "},"Ċ":{"ha":833,"x_min":53,"x_max":843,"o":"m 371 -17 q 134 92 215 -17 q 53 386 53 201 q 84 608 53 500 q 176 801 115 715 q 326 938 236 888 q 533 989 417 989 q 766 902 689 989 q 836 672 843 815 l 674 672 q 634 799 675 749 q 507 850 593 850 q 382 812 438 850 q 287 709 326 774 q 226 566 247 644 q 204 406 204 488 q 251 197 204 271 q 392 122 299 122 q 528 169 474 122 q 607 292 582 215 l 769 292 q 629 65 728 146 q 371 -17 531 -17 z "},"D":{"ha":833,"x_min":18,"x_max":807,"o":"m 18 0 l 190 972 l 413 972 q 627 920 539 972 q 761 773 715 868 q 807 547 807 678 q 746 267 807 392 q 563 72 685 143 q 256 0 440 0 l 18 0 m 190 136 l 271 136 q 484 188 399 136 q 613 328 569 239 q 656 532 656 418 q 592 755 656 674 q 389 836 528 836 l 314 836 l 190 136 z "},"Ð":{"ha":833,"x_min":21,"x_max":804,"o":"m 46 0 l 121 424 l 21 424 l 42 549 l 143 549 l 218 972 l 411 972 q 625 920 538 972 q 758 773 713 868 q 804 547 804 678 q 743 267 804 392 q 560 72 682 143 q 253 0 438 0 l 46 0 m 218 136 l 268 136 q 481 188 396 136 q 610 328 567 239 q 653 532 653 418 q 589 755 653 674 q 388 836 525 836 l 342 836 l 290 549 l 479 549 l 458 424 l 269 424 l 218 136 z "},"Ď":{"ha":833,"x_min":18,"x_max":807,"o":"m 18 0 l 190 972 l 413 972 q 627 920 539 972 q 761 773 715 868 q 807 547 807 678 q 746 267 807 392 q 563 72 685 143 q 256 0 440 0 l 18 0 m 190 136 l 271 136 q 484 188 399 136 q 613 328 569 239 q 656 532 656 418 q 592 755 656 674 q 389 836 528 836 l 314 836 l 190 136 z "},"Đ":{"ha":833,"x_min":21,"x_max":804,"o":"m 46 0 l 121 424 l 21 424 l 42 549 l 143 549 l 218 972 l 411 972 q 625 920 538 972 q 758 773 713 868 q 804 547 804 678 q 743 267 804 392 q 560 72 682 143 q 253 0 438 0 l 46 0 m 218 136 l 268 136 q 481 188 396 136 q 610 328 567 239 q 653 532 653 418 q 589 755 653 674 q 388 836 525 836 l 342 836 l 290 549 l 479 549 l 458 424 l 269 424 l 218 136 z "},"E":{"ha":833,"x_min":50,"x_max":843,"o":"m 50 0 l 222 972 l 843 972 l 819 840 l 346 840 l 296 557 l 729 557 l 706 426 l 274 426 l 221 132 l 694 132 l 671 0 l 50 0 z "},"É":{"ha":833,"x_min":50,"x_max":843,"o":"m 50 0 l 222 972 l 843 972 l 819 840 l 346 840 l 296 557 l 729 557 l 706 426 l 274 426 l 221 132 l 694 132 l 671 0 l 50 0 z "},"Ĕ":{"ha":833,"x_min":50,"x_max":843,"o":"m 50 0 l 222 972 l 843 972 l 819 840 l 346 840 l 296 557 l 729 557 l 706 426 l 274 426 l 221 132 l 694 132 l 671 0 l 50 0 z "},"Ě":{"ha":833,"x_min":50,"x_max":843,"o":"m 50 0 l 222 972 l 843 972 l 819 840 l 346 840 l 296 557 l 729 557 l 706 426 l 274 426 l 221 132 l 694 132 l 671 0 l 50 0 z "},"Ê":{"ha":833,"x_min":50,"x_max":843,"o":"m 50 0 l 222 972 l 843 972 l 819 840 l 346 840 l 296 557 l 729 557 l 706 426 l 274 426 l 221 132 l 694 132 l 671 0 l 50 0 z "},"Ë":{"ha":833,"x_min":50,"x_max":843,"o":"m 50 0 l 222 972 l 843 972 l 819 840 l 346 840 l 296 557 l 729 557 l 706 426 l 274 426 l 221 132 l 694 132 l 671 0 l 50 0 z "},"Ė":{"ha":833,"x_min":50,"x_max":843,"o":"m 50 0 l 222 972 l 843 972 l 819 840 l 346 840 l 296 557 l 729 557 l 706 426 l 274 426 l 221 132 l 694 132 l 671 0 l 50 0 z "},"È":{"ha":833,"x_min":50,"x_max":843,"o":"m 50 0 l 222 972 l 843 972 l 819 840 l 346 840 l 296 557 l 729 557 l 706 426 l 274 426 l 221 132 l 694 132 l 671 0 l 50 0 z "},"Ē":{"ha":833,"x_min":50,"x_max":843,"o":"m 50 0 l 222 972 l 843 972 l 819 840 l 346 840 l 296 557 l 729 557 l 706 426 l 274 426 l 221 132 l 694 132 l 671 0 l 50 0 z "},"Ę":{"ha":833,"x_min":50,"x_max":843,"o":"m 50 0 l 222 972 l 843 972 l 819 840 l 346 840 l 296 557 l 729 557 l 706 426 l 274 426 l 221 132 l 694 132 l 671 0 l 50 0 z "},"Ẽ":{"ha":833,"x_min":50,"x_max":843,"o":"m 50 0 l 222 972 l 843 972 l 819 840 l 346 840 l 296 557 l 729 557 l 706 426 l 274 426 l 221 132 l 694 132 l 671 0 l 50 0 z "},"F":{"ha":833,"x_min":56,"x_max":851,"o":"m 56 0 l 228 972 l 851 972 l 826 835 l 350 835 l 297 538 l 697 538 l 675 408 l 275 408 l 203 0 l 56 0 z "},"G":{"ha":833,"x_min":58,"x_max":824,"o":"m 350 -17 q 137 91 215 -17 q 58 388 58 199 q 88 608 58 500 q 177 801 118 715 q 324 938 236 888 q 529 989 413 989 q 744 908 669 989 q 824 686 818 826 l 663 686 q 619 806 661 761 q 506 850 578 850 q 376 810 432 850 q 284 705 321 771 q 228 559 247 639 q 210 399 210 479 q 253 194 210 265 q 379 122 297 122 q 503 163 451 122 q 588 268 554 204 q 638 400 621 332 l 433 400 l 454 522 l 807 522 l 715 0 l 586 0 l 592 115 l 585 115 q 497 20 556 57 q 350 -17 438 -17 z "},"Ğ":{"ha":833,"x_min":58,"x_max":824,"o":"m 350 -17 q 137 91 215 -17 q 58 388 58 199 q 88 608 58 500 q 177 801 118 715 q 324 938 236 888 q 529 989 413 989 q 744 908 669 989 q 824 686 818 826 l 663 686 q 619 806 661 761 q 506 850 578 850 q 376 810 432 850 q 284 705 321 771 q 228 559 247 639 q 210 399 210 479 q 253 194 210 265 q 379 122 297 122 q 503 163 451 122 q 588 268 554 204 q 638 400 621 332 l 433 400 l 454 522 l 807 522 l 715 0 l 586 0 l 592 115 l 585 115 q 497 20 556 57 q 350 -17 438 -17 z "},"Ģ":{"ha":833,"x_min":58,"x_max":824,"o":"m 350 -17 q 137 91 215 -17 q 58 388 58 199 q 88 608 58 500 q 177 801 118 715 q 324 938 236 888 q 529 989 413 989 q 744 908 669 989 q 824 686 818 826 l 663 686 q 619 806 661 761 q 506 850 578 850 q 376 810 432 850 q 284 705 321 771 q 228 559 247 639 q 210 399 210 479 q 253 194 210 265 q 379 122 297 122 q 503 163 451 122 q 588 268 554 204 q 638 400 621 332 l 433 400 l 454 522 l 807 522 l 715 0 l 586 0 l 592 115 l 585 115 q 497 20 556 57 q 350 -17 438 -17 m 128 -385 l 253 -94 l 440 -94 l 265 -385 l 128 -385 z "},"Ġ":{"ha":833,"x_min":58,"x_max":824,"o":"m 350 -17 q 137 91 215 -17 q 58 388 58 199 q 88 608 58 500 q 177 801 118 715 q 324 938 236 888 q 529 989 413 989 q 744 908 669 989 q 824 686 818 826 l 663 686 q 619 806 661 761 q 506 850 578 850 q 376 810 432 850 q 284 705 321 771 q 228 559 247 639 q 210 399 210 479 q 253 194 210 265 q 379 122 297 122 q 503 163 451 122 q 588 268 554 204 q 638 400 621 332 l 433 400 l 454 522 l 807 522 l 715 0 l 586 0 l 592 115 l 585 115 q 497 20 556 57 q 350 -17 438 -17 z "},"H":{"ha":833,"x_min":-4,"x_max":888,"o":"m -4 0 l 168 972 l 315 972 l 244 569 l 669 569 l 740 972 l 888 972 l 715 0 l 568 0 l 644 435 l 219 435 l 143 0 l -4 0 z "},"I":{"ha":833,"x_min":71,"x_max":810,"o":"m 71 0 l 93 131 l 306 131 l 431 842 l 222 842 l 246 972 l 810 972 l 786 842 l 578 842 l 453 131 l 664 131 l 640 0 l 71 0 z "},"Í":{"ha":833,"x_min":71,"x_max":810,"o":"m 71 0 l 93 131 l 306 131 l 431 842 l 222 842 l 246 972 l 810 972 l 786 842 l 578 842 l 453 131 l 664 131 l 640 0 l 71 0 z "},"Ĭ":{"ha":833,"x_min":71,"x_max":810,"o":"m 71 0 l 93 131 l 306 131 l 431 842 l 222 842 l 246 972 l 810 972 l 786 842 l 578 842 l 453 131 l 664 131 l 640 0 l 71 0 z "},"Î":{"ha":833,"x_min":71,"x_max":810,"o":"m 71 0 l 93 131 l 306 131 l 431 842 l 222 842 l 246 972 l 810 972 l 786 842 l 578 842 l 453 131 l 664 131 l 640 0 l 71 0 z "},"Ï":{"ha":833,"x_min":71,"x_max":810,"o":"m 71 0 l 93 131 l 306 131 l 431 842 l 222 842 l 246 972 l 810 972 l 786 842 l 578 842 l 453 131 l 664 131 l 640 0 l 71 0 z "},"İ":{"ha":833,"x_min":71,"x_max":810,"o":"m 71 0 l 93 131 l 306 131 l 431 842 l 222 842 l 246 972 l 810 972 l 786 842 l 578 842 l 453 131 l 664 131 l 640 0 l 71 0 z "},"Ì":{"ha":833,"x_min":71,"x_max":810,"o":"m 71 0 l 93 131 l 306 131 l 431 842 l 222 842 l 246 972 l 810 972 l 786 842 l 578 842 l 453 131 l 664 131 l 640 0 l 71 0 z "},"Ī":{"ha":833,"x_min":71,"x_max":810,"o":"m 71 0 l 93 131 l 306 131 l 431 842 l 222 842 l 246 972 l 810 972 l 786 842 l 578 842 l 453 131 l 664 131 l 640 0 l 71 0 z "},"Į":{"ha":833,"x_min":71,"x_max":810,"o":"m 71 0 l 93 131 l 306 131 l 431 842 l 222 842 l 246 972 l 810 972 l 786 842 l 578 842 l 453 131 l 664 131 l 640 0 l 71 0 z "},"Ĩ":{"ha":833,"x_min":71,"x_max":810,"o":"m 71 0 l 93 131 l 306 131 l 431 842 l 222 842 l 246 972 l 810 972 l 786 842 l 578 842 l 453 131 l 664 131 l 640 0 l 71 0 z "},"J":{"ha":833,"x_min":100,"x_max":839,"o":"m 371 -17 q 213 26 275 -17 q 126 140 151 68 q 111 299 100 213 l 258 299 q 276 169 247 222 q 388 117 306 117 q 514 168 469 117 q 572 296 558 219 l 692 972 l 839 972 l 719 296 q 605 60 692 136 q 371 -17 518 -17 z "},"K":{"ha":833,"x_min":44,"x_max":890,"o":"m 44 0 l 217 972 l 364 972 l 286 531 l 699 972 l 890 972 l 424 482 l 422 472 l 726 0 l 553 0 l 269 438 l 192 0 l 44 0 z "},"Ķ":{"ha":833,"x_min":44,"x_max":890,"o":"m 44 0 l 217 972 l 364 972 l 286 531 l 699 972 l 890 972 l 424 482 l 422 472 l 726 0 l 553 0 l 269 438 l 192 0 l 44 0 m 128 -385 l 253 -94 l 440 -94 l 265 -385 l 128 -385 z "},"L":{"ha":833,"x_min":51,"x_max":701,"o":"m 51 0 l 224 972 l 371 972 l 222 132 l 701 132 l 678 0 l 51 0 z "},"Ĺ":{"ha":833,"x_min":51,"x_max":701,"o":"m 51 0 l 224 972 l 371 972 l 222 132 l 701 132 l 678 0 l 51 0 z "},"Ľ":{"ha":833,"x_min":51,"x_max":846,"o":"m 51 0 l 224 972 l 371 972 l 222 132 l 701 132 l 678 0 l 51 0 m 568 661 l 672 972 l 846 972 l 686 661 l 568 661 z "},"Ļ":{"ha":833,"x_min":51,"x_max":701,"o":"m 51 0 l 224 972 l 371 972 l 222 132 l 701 132 l 678 0 l 51 0 m 138 -385 l 263 -94 l 450 -94 l 275 -385 l 138 -385 z "},"Ŀ":{"ha":833,"x_min":51,"x_max":740,"o":"m 51 0 l 224 972 l 371 972 l 222 132 l 701 132 l 678 0 l 51 0 m 625 374 q 544 405 578 374 q 510 483 510 436 q 544 560 510 529 q 625 590 578 590 q 707 560 674 590 q 740 483 740 529 q 707 405 740 436 q 625 374 674 374 z "},"Ł":{"ha":833,"x_min":17,"x_max":736,"o":"m 86 0 l 143 324 l 17 276 l 40 411 l 167 458 l 258 972 l 406 972 l 325 518 l 517 589 l 493 454 l 301 382 l 257 132 l 736 132 l 713 0 l 86 0 z "},"M":{"ha":833,"x_min":-1,"x_max":885,"o":"m -1 0 l 171 972 l 319 972 l 444 532 l 722 972 l 885 972 l 713 0 l 572 0 l 694 690 l 476 344 l 360 344 l 261 692 l 139 0 l -1 0 z "},"N":{"ha":833,"x_min":10,"x_max":874,"o":"m 10 0 l 182 972 l 326 972 l 604 249 l 733 972 l 874 972 l 701 0 l 557 0 l 279 724 l 150 0 l 10 0 z "},"Ń":{"ha":833,"x_min":10,"x_max":874,"o":"m 10 0 l 182 972 l 326 972 l 604 249 l 733 972 l 874 972 l 701 0 l 557 0 l 279 724 l 150 0 l 10 0 z "},"Ň":{"ha":833,"x_min":10,"x_max":874,"o":"m 10 0 l 182 972 l 326 972 l 604 249 l 733 972 l 874 972 l 701 0 l 557 0 l 279 724 l 150 0 l 10 0 z "},"Ņ":{"ha":833,"x_min":10,"x_max":874,"o":"m 10 0 l 182 972 l 326 972 l 604 249 l 733 972 l 874 972 l 701 0 l 557 0 l 279 724 l 150 0 l 10 0 m 128 -385 l 253 -94 l 440 -94 l 265 -385 l 128 -385 z "},"Ñ":{"ha":833,"x_min":10,"x_max":874,"o":"m 10 0 l 182 972 l 326 972 l 604 249 l 733 972 l 874 972 l 701 0 l 557 0 l 279 724 l 150 0 l 10 0 z "},"O":{"ha":833,"x_min":50,"x_max":832,"o":"m 364 -17 q 131 87 213 -17 q 50 372 50 190 q 81 603 50 492 q 173 801 113 714 q 321 938 233 888 q 519 989 408 989 q 751 885 671 989 q 832 600 832 782 q 801 369 832 479 q 709 172 769 258 q 562 34 649 85 q 364 -17 475 -17 m 378 121 q 508 161 451 121 q 603 269 565 201 q 661 416 642 336 q 681 575 681 496 q 636 780 681 710 q 506 850 592 850 q 375 810 432 850 q 279 703 318 769 q 221 556 240 636 q 201 396 201 475 q 247 192 201 263 q 378 121 293 121 z "},"Ó":{"ha":833,"x_min":50,"x_max":832,"o":"m 364 -17 q 131 87 213 -17 q 50 372 50 190 q 81 603 50 492 q 173 801 113 714 q 321 938 233 888 q 519 989 408 989 q 751 885 671 989 q 832 600 832 782 q 801 369 832 479 q 709 172 769 258 q 562 34 649 85 q 364 -17 475 -17 m 378 121 q 508 161 451 121 q 603 269 565 201 q 661 416 642 336 q 681 575 681 496 q 636 780 681 710 q 506 850 592 850 q 375 810 432 850 q 279 703 318 769 q 221 556 240 636 q 201 396 201 475 q 247 192 201 263 q 378 121 293 121 z "},"Ŏ":{"ha":833,"x_min":50,"x_max":832,"o":"m 364 -17 q 131 87 213 -17 q 50 372 50 190 q 81 603 50 492 q 173 801 113 714 q 321 938 233 888 q 519 989 408 989 q 751 885 671 989 q 832 600 832 782 q 801 369 832 479 q 709 172 769 258 q 562 34 649 85 q 364 -17 475 -17 m 378 121 q 508 161 451 121 q 603 269 565 201 q 661 416 642 336 q 681 575 681 496 q 636 780 681 710 q 506 850 592 850 q 375 810 432 850 q 279 703 318 769 q 221 556 240 636 q 201 396 201 475 q 247 192 201 263 q 378 121 293 121 z "},"Ô":{"ha":833,"x_min":50,"x_max":832,"o":"m 364 -17 q 131 87 213 -17 q 50 372 50 190 q 81 603 50 492 q 173 801 113 714 q 321 938 233 888 q 519 989 408 989 q 751 885 671 989 q 832 600 832 782 q 801 369 832 479 q 709 172 769 258 q 562 34 649 85 q 364 -17 475 -17 m 378 121 q 508 161 451 121 q 603 269 565 201 q 661 416 642 336 q 681 575 681 496 q 636 780 681 710 q 506 850 592 850 q 375 810 432 850 q 279 703 318 769 q 221 556 240 636 q 201 396 201 475 q 247 192 201 263 q 378 121 293 121 z "},"Ö":{"ha":833,"x_min":50,"x_max":832,"o":"m 364 -17 q 131 87 213 -17 q 50 372 50 190 q 81 603 50 492 q 173 801 113 714 q 321 938 233 888 q 519 989 408 989 q 751 885 671 989 q 832 600 832 782 q 801 369 832 479 q 709 172 769 258 q 562 34 649 85 q 364 -17 475 -17 m 378 121 q 508 161 451 121 q 603 269 565 201 q 661 416 642 336 q 681 575 681 496 q 636 780 681 710 q 506 850 592 850 q 375 810 432 850 q 279 703 318 769 q 221 556 240 636 q 201 396 201 475 q 247 192 201 263 q 378 121 293 121 z "},"Ò":{"ha":833,"x_min":50,"x_max":832,"o":"m 364 -17 q 131 87 213 -17 q 50 372 50 190 q 81 603 50 492 q 173 801 113 714 q 321 938 233 888 q 519 989 408 989 q 751 885 671 989 q 832 600 832 782 q 801 369 832 479 q 709 172 769 258 q 562 34 649 85 q 364 -17 475 -17 m 378 121 q 508 161 451 121 q 603 269 565 201 q 661 416 642 336 q 681 575 681 496 q 636 780 681 710 q 506 850 592 850 q 375 810 432 850 q 279 703 318 769 q 221 556 240 636 q 201 396 201 475 q 247 192 201 263 q 378 121 293 121 z "},"Ő":{"ha":833,"x_min":50,"x_max":847,"o":"m 364 -17 q 131 87 213 -17 q 50 372 50 190 q 81 603 50 492 q 173 801 113 714 q 321 938 233 888 q 519 989 408 989 q 751 885 671 989 q 832 600 832 782 q 801 369 832 479 q 709 172 769 258 q 562 34 649 85 q 364 -17 475 -17 m 378 121 q 508 161 451 121 q 603 269 565 201 q 661 416 642 336 q 681 575 681 496 q 636 780 681 710 q 506 850 592 850 q 375 810 432 850 q 279 703 318 769 q 221 556 240 636 q 201 396 201 475 q 247 192 201 263 q 378 121 293 121 z "},"Ō":{"ha":833,"x_min":50,"x_max":832,"o":"m 364 -17 q 131 87 213 -17 q 50 372 50 190 q 81 603 50 492 q 173 801 113 714 q 321 938 233 888 q 519 989 408 989 q 751 885 671 989 q 832 600 832 782 q 801 369 832 479 q 709 172 769 258 q 562 34 649 85 q 364 -17 475 -17 m 378 121 q 508 161 451 121 q 603 269 565 201 q 661 416 642 336 q 681 575 681 496 q 636 780 681 710 q 506 850 592 850 q 375 810 432 850 q 279 703 318 769 q 221 556 240 636 q 201 396 201 475 q 247 192 201 263 q 378 121 293 121 z "},"Ø":{"ha":833,"x_min":-29,"x_max":913,"o":"m -29 -28 l 99 138 q 50 372 50 232 q 81 603 50 492 q 173 801 113 714 q 321 938 233 888 q 519 989 408 989 q 710 928 633 989 l 765 1000 l 913 1000 l 785 833 q 832 600 832 740 q 801 369 832 479 q 709 172 769 258 q 562 34 649 85 q 364 -17 475 -17 q 175 43 250 -17 l 119 -28 l -29 -28 m 201 396 q 211 283 201 333 l 615 806 q 506 850 572 850 q 375 810 432 850 q 279 703 318 769 q 221 556 240 636 q 201 396 201 475 m 378 121 q 508 161 451 121 q 603 269 565 201 q 661 416 642 336 q 681 575 681 496 q 671 686 681 638 l 268 165 q 378 121 311 121 z "},"Õ":{"ha":833,"x_min":50,"x_max":832,"o":"m 364 -17 q 131 87 213 -17 q 50 372 50 190 q 81 603 50 492 q 173 801 113 714 q 321 938 233 888 q 519 989 408 989 q 751 885 671 989 q 832 600 832 782 q 801 369 832 479 q 709 172 769 258 q 562 34 649 85 q 364 -17 475 -17 m 378 121 q 508 161 451 121 q 603 269 565 201 q 661 416 642 336 q 681 575 681 496 q 636 780 681 710 q 506 850 592 850 q 375 810 432 850 q 279 703 318 769 q 221 556 240 636 q 201 396 201 475 q 247 192 201 263 q 378 121 293 121 z "},"Œ":{"ha":833,"x_min":28,"x_max":935,"o":"m 218 -17 q 80 62 132 -17 q 28 311 28 140 q 41 491 28 397 q 82 674 54 585 q 152 833 110 763 q 253 947 194 904 q 388 989 313 989 q 469 965 436 989 q 519 900 501 940 l 529 900 l 542 972 l 935 972 l 911 840 l 661 840 l 611 557 l 819 557 l 796 426 l 589 426 l 536 132 l 786 132 l 763 0 l 369 0 l 383 72 l 374 72 q 310 6 344 29 q 218 -17 276 -17 m 261 113 q 338 148 303 113 q 399 242 372 183 q 444 373 426 301 q 472 517 463 444 q 482 651 482 589 q 458 811 482 763 q 388 860 433 860 q 313 825 347 860 q 253 733 279 790 q 208 603 226 675 q 179 457 189 532 q 169 314 169 382 q 194 159 169 206 q 261 113 219 113 z "},"P":{"ha":833,"x_min":38,"x_max":818,"o":"m 38 0 l 210 972 l 525 972 q 744 896 669 972 q 818 701 818 819 q 716 464 818 547 q 435 381 614 381 l 251 381 l 185 0 l 38 0 m 275 513 l 450 513 q 608 560 551 513 q 665 696 665 607 q 627 801 665 763 q 507 840 589 840 l 333 840 l 275 513 z "},"Þ":{"ha":833,"x_min":38,"x_max":785,"o":"m 38 0 l 210 972 l 357 972 l 324 782 l 492 782 q 710 706 636 782 q 785 513 785 631 q 683 274 785 357 q 401 190 581 190 l 218 190 l 185 0 l 38 0 m 242 322 l 417 322 q 575 370 518 322 q 632 506 632 418 q 594 611 632 572 q 474 650 556 650 l 300 650 l 242 322 z "},"Q":{"ha":833,"x_min":50,"x_max":832,"o":"m 364 -17 q 131 87 213 -17 q 50 372 50 190 q 81 603 50 492 q 173 801 113 714 q 321 938 233 888 q 519 989 408 989 q 751 885 671 989 q 832 600 832 782 q 798 360 832 475 q 699 156 764 244 q 540 24 633 68 l 713 -212 l 536 -212 l 390 -15 q 364 -17 378 -17 m 378 121 q 508 161 451 121 q 603 269 565 201 q 661 416 642 336 q 681 575 681 496 q 636 780 681 710 q 506 850 592 850 q 375 810 432 850 q 279 703 318 769 q 221 556 240 636 q 201 396 201 475 q 247 192 201 263 q 378 121 293 121 z "},"R":{"ha":833,"x_min":43,"x_max":824,"o":"m 43 0 l 215 972 l 528 972 q 749 898 675 972 q 824 706 824 824 q 756 508 824 585 q 574 401 689 431 l 707 0 l 546 0 l 425 385 l 258 385 l 190 0 l 43 0 m 282 518 l 444 518 q 610 566 550 518 q 671 697 671 614 q 629 802 671 764 q 497 840 588 840 l 339 840 l 282 518 z "},"Ŕ":{"ha":833,"x_min":43,"x_max":824,"o":"m 43 0 l 215 972 l 528 972 q 749 898 675 972 q 824 706 824 824 q 756 508 824 585 q 574 401 689 431 l 707 0 l 546 0 l 425 385 l 258 385 l 190 0 l 43 0 m 282 518 l 444 518 q 610 566 550 518 q 671 697 671 614 q 629 802 671 764 q 497 840 588 840 l 339 840 l 282 518 z "},"Ř":{"ha":833,"x_min":43,"x_max":824,"o":"m 43 0 l 215 972 l 528 972 q 749 898 675 972 q 824 706 824 824 q 756 508 824 585 q 574 401 689 431 l 707 0 l 546 0 l 425 385 l 258 385 l 190 0 l 43 0 m 282 518 l 444 518 q 610 566 550 518 q 671 697 671 614 q 629 802 671 764 q 497 840 588 840 l 339 840 l 282 518 z "},"Ŗ":{"ha":833,"x_min":43,"x_max":824,"o":"m 43 0 l 215 972 l 528 972 q 749 898 675 972 q 824 706 824 824 q 756 508 824 585 q 574 401 689 431 l 707 0 l 546 0 l 425 385 l 258 385 l 190 0 l 43 0 m 282 518 l 444 518 q 610 566 550 518 q 671 697 671 614 q 629 802 671 764 q 497 840 588 840 l 339 840 l 282 518 m 128 -385 l 253 -94 l 440 -94 l 265 -385 l 128 -385 z "},"S":{"ha":833,"x_min":68,"x_max":804,"o":"m 390 -17 q 203 24 275 -17 q 100 135 132 65 q 71 293 68 206 l 226 293 q 260 166 217 217 q 389 115 304 115 q 529 156 476 115 q 582 271 582 196 q 567 337 582 307 q 509 394 551 367 q 385 450 467 421 q 168 721 168 529 q 212 865 168 806 q 333 957 256 925 q 511 989 410 989 q 728 915 651 989 q 799 714 804 842 l 643 714 q 605 817 647 776 q 493 857 563 857 q 372 821 418 857 q 325 728 325 785 q 369 629 325 667 q 519 551 413 592 q 633 495 583 529 q 713 411 683 461 q 742 289 742 361 q 697 124 742 192 q 574 19 653 56 q 390 -17 494 -17 z "},"Ś":{"ha":833,"x_min":68,"x_max":804,"o":"m 390 -17 q 203 24 275 -17 q 100 135 132 65 q 71 293 68 206 l 226 293 q 260 166 217 217 q 389 115 304 115 q 529 156 476 115 q 582 271 582 196 q 567 337 582 307 q 509 394 551 367 q 385 450 467 421 q 168 721 168 529 q 212 865 168 806 q 333 957 256 925 q 511 989 410 989 q 728 915 651 989 q 799 714 804 842 l 643 714 q 605 817 647 776 q 493 857 563 857 q 372 821 418 857 q 325 728 325 785 q 369 629 325 667 q 519 551 413 592 q 633 495 583 529 q 713 411 683 461 q 742 289 742 361 q 697 124 742 192 q 574 19 653 56 q 390 -17 494 -17 z "},"Š":{"ha":833,"x_min":68,"x_max":804,"o":"m 390 -17 q 203 24 275 -17 q 100 135 132 65 q 71 293 68 206 l 226 293 q 260 166 217 217 q 389 115 304 115 q 529 156 476 115 q 582 271 582 196 q 567 337 582 307 q 509 394 551 367 q 385 450 467 421 q 168 721 168 529 q 212 865 168 806 q 333 957 256 925 q 511 989 410 989 q 728 915 651 989 q 799 714 804 842 l 643 714 q 605 817 647 776 q 493 857 563 857 q 372 821 418 857 q 325 728 325 785 q 369 629 325 667 q 519 551 413 592 q 633 495 583 529 q 713 411 683 461 q 742 289 742 361 q 697 124 742 192 q 574 19 653 56 q 390 -17 494 -17 z "},"Ş":{"ha":833,"x_min":68,"x_max":804,"o":"m 390 -17 q 203 24 275 -17 q 100 135 132 65 q 71 293 68 206 l 226 293 q 260 166 217 217 q 389 115 304 115 q 529 156 476 115 q 582 271 582 196 q 567 337 582 307 q 509 394 551 367 q 385 450 467 421 q 168 721 168 529 q 212 865 168 806 q 333 957 256 925 q 511 989 410 989 q 728 915 651 989 q 799 714 804 842 l 643 714 q 605 817 647 776 q 493 857 563 857 q 372 821 418 857 q 325 728 325 785 q 369 629 325 667 q 519 551 413 592 q 633 495 583 529 q 713 411 683 461 q 742 289 742 361 q 697 124 742 192 q 574 19 653 56 q 390 -17 494 -17 z "},"Ș":{"ha":833,"x_min":68,"x_max":804,"o":"m 390 -17 q 203 24 275 -17 q 100 135 132 65 q 71 293 68 206 l 226 293 q 260 166 217 217 q 389 115 304 115 q 529 156 476 115 q 582 271 582 196 q 567 337 582 307 q 509 394 551 367 q 385 450 467 421 q 168 721 168 529 q 212 865 168 806 q 333 957 256 925 q 511 989 410 989 q 728 915 651 989 q 799 714 804 842 l 643 714 q 605 817 647 776 q 493 857 563 857 q 372 821 418 857 q 325 728 325 785 q 369 629 325 667 q 519 551 413 592 q 633 495 583 529 q 713 411 683 461 q 742 289 742 361 q 697 124 742 192 q 574 19 653 56 q 390 -17 494 -17 m 128 -385 l 253 -94 l 440 -94 l 265 -385 l 128 -385 z "},"Ə":{"ha":833,"x_min":61,"x_max":832,"o":"m 368 -17 q 199 29 268 -17 q 96 156 131 75 q 61 346 61 238 q 69 445 61 396 q 90 533 78 494 l 682 533 q 682 567 682 550 q 628 774 682 699 q 488 850 574 850 q 357 808 411 850 q 279 692 303 767 l 128 692 q 194 842 147 775 q 319 949 242 910 q 506 989 397 989 q 744 880 657 989 q 832 579 832 771 q 801 351 832 458 q 713 161 771 244 q 567 31 654 78 q 368 -17 481 -17 m 386 121 q 564 199 489 121 q 667 411 639 276 l 218 411 q 210 326 210 365 q 254 177 210 233 q 386 121 299 121 z "},"T":{"ha":833,"x_min":169,"x_max":863,"o":"m 282 0 l 431 840 l 169 840 l 193 972 l 863 972 l 839 840 l 578 840 l 429 0 l 282 0 z "},"Ť":{"ha":833,"x_min":169,"x_max":863,"o":"m 282 0 l 431 840 l 169 840 l 193 972 l 863 972 l 839 840 l 578 840 l 429 0 l 282 0 z "},"Ţ":{"ha":833,"x_min":169,"x_max":863,"o":"m 282 0 l 431 840 l 169 840 l 193 972 l 863 972 l 839 840 l 578 840 l 429 0 l 282 0 z "},"Ț":{"ha":833,"x_min":128,"x_max":863,"o":"m 282 0 l 431 840 l 169 840 l 193 972 l 863 972 l 839 840 l 578 840 l 429 0 l 282 0 m 128 -385 l 253 -94 l 440 -94 l 265 -385 l 128 -385 z "},"U":{"ha":833,"x_min":54,"x_max":872,"o":"m 363 -17 q 192 30 265 -17 q 87 160 119 76 q 74 356 54 243 l 183 972 l 331 972 l 219 347 q 244 176 201 236 q 376 115 288 115 q 533 172 471 115 q 614 347 594 229 l 725 972 l 872 972 l 761 349 q 621 67 726 151 q 363 -17 515 -17 z "},"Ú":{"ha":833,"x_min":54,"x_max":872,"o":"m 363 -17 q 192 30 265 -17 q 87 160 119 76 q 74 356 54 243 l 183 972 l 331 972 l 219 347 q 244 176 201 236 q 376 115 288 115 q 533 172 471 115 q 614 347 594 229 l 725 972 l 872 972 l 761 349 q 621 67 726 151 q 363 -17 515 -17 z "},"Ŭ":{"ha":833,"x_min":54,"x_max":872,"o":"m 363 -17 q 192 30 265 -17 q 87 160 119 76 q 74 356 54 243 l 183 972 l 331 972 l 219 347 q 244 176 201 236 q 376 115 288 115 q 533 172 471 115 q 614 347 594 229 l 725 972 l 872 972 l 761 349 q 621 67 726 151 q 363 -17 515 -17 z "},"Û":{"ha":833,"x_min":54,"x_max":872,"o":"m 363 -17 q 192 30 265 -17 q 87 160 119 76 q 74 356 54 243 l 183 972 l 331 972 l 219 347 q 244 176 201 236 q 376 115 288 115 q 533 172 471 115 q 614 347 594 229 l 725 972 l 872 972 l 761 349 q 621 67 726 151 q 363 -17 515 -17 z "},"Ü":{"ha":833,"x_min":54,"x_max":872,"o":"m 363 -17 q 192 30 265 -17 q 87 160 119 76 q 74 356 54 243 l 183 972 l 331 972 l 219 347 q 244 176 201 236 q 376 115 288 115 q 533 172 471 115 q 614 347 594 229 l 725 972 l 872 972 l 761 349 q 621 67 726 151 q 363 -17 515 -17 z "},"Ù":{"ha":833,"x_min":54,"x_max":872,"o":"m 363 -17 q 192 30 265 -17 q 87 160 119 76 q 74 356 54 243 l 183 972 l 331 972 l 219 347 q 244 176 201 236 q 376 115 288 115 q 533 172 471 115 q 614 347 594 229 l 725 972 l 872 972 l 761 349 q 621 67 726 151 q 363 -17 515 -17 z "},"Ű":{"ha":833,"x_min":54,"x_max":872,"o":"m 363 -17 q 192 30 265 -17 q 87 160 119 76 q 74 356 54 243 l 183 972 l 331 972 l 219 347 q 244 176 201 236 q 376 115 288 115 q 533 172 471 115 q 614 347 594 229 l 725 972 l 872 972 l 761 349 q 621 67 726 151 q 363 -17 515 -17 z "},"Ū":{"ha":833,"x_min":54,"x_max":872,"o":"m 363 -17 q 192 30 265 -17 q 87 160 119 76 q 74 356 54 243 l 183 972 l 331 972 l 219 347 q 244 176 201 236 q 376 115 288 115 q 533 172 471 115 q 614 347 594 229 l 725 972 l 872 972 l 761 349 q 621 67 726 151 q 363 -17 515 -17 z "},"Ų":{"ha":833,"x_min":54,"x_max":872,"o":"m 363 -17 q 192 30 265 -17 q 87 160 119 76 q 74 356 54 243 l 183 972 l 331 972 l 219 347 q 244 176 201 236 q 376 115 288 115 q 533 172 471 115 q 614 347 594 229 l 725 972 l 872 972 l 761 349 q 621 67 726 151 q 363 -17 515 -17 z "},"Ů":{"ha":833,"x_min":54,"x_max":872,"o":"m 363 -17 q 192 30 265 -17 q 87 160 119 76 q 74 356 54 243 l 183 972 l 331 972 l 219 347 q 244 176 201 236 q 376 115 288 115 q 533 172 471 115 q 614 347 594 229 l 725 972 l 872 972 l 761 349 q 621 67 726 151 q 363 -17 515 -17 z "},"Ũ":{"ha":833,"x_min":54,"x_max":872,"o":"m 363 -17 q 192 30 265 -17 q 87 160 119 76 q 74 356 54 243 l 183 972 l 331 972 l 219 347 q 244 176 201 236 q 376 115 288 115 q 533 172 471 115 q 614 347 594 229 l 725 972 l 872 972 l 761 349 q 621 67 726 151 q 363 -17 515 -17 z "},"V":{"ha":833,"x_min":140,"x_max":915,"o":"m 268 0 l 140 972 l 296 972 l 385 193 l 749 972 l 915 972 l 447 0 l 268 0 z "},"W":{"ha":833,"x_min":76,"x_max":943,"o":"m 76 0 l 113 972 l 254 972 l 211 267 l 454 972 l 596 972 l 594 263 l 800 972 l 943 972 l 642 0 l 467 0 l 481 688 l 246 0 l 76 0 z "},"Ẃ":{"ha":833,"x_min":76,"x_max":943,"o":"m 76 0 l 113 972 l 254 972 l 211 267 l 454 972 l 596 972 l 594 263 l 800 972 l 943 972 l 642 0 l 467 0 l 481 688 l 246 0 l 76 0 z "},"Ŵ":{"ha":833,"x_min":76,"x_max":943,"o":"m 76 0 l 113 972 l 254 972 l 211 267 l 454 972 l 596 972 l 594 263 l 800 972 l 943 972 l 642 0 l 467 0 l 481 688 l 246 0 l 76 0 z "},"Ẅ":{"ha":833,"x_min":76,"x_max":943,"o":"m 76 0 l 113 972 l 254 972 l 211 267 l 454 972 l 596 972 l 594 263 l 800 972 l 943 972 l 642 0 l 467 0 l 481 688 l 246 0 l 76 0 z "},"Ẁ":{"ha":833,"x_min":76,"x_max":943,"o":"m 76 0 l 113 972 l 254 972 l 211 267 l 454 972 l 596 972 l 594 263 l 800 972 l 943 972 l 642 0 l 467 0 l 481 688 l 246 0 l 76 0 z "},"X":{"ha":833,"x_min":-18,"x_max":901,"o":"m -18 0 l 357 494 l 151 972 l 317 972 l 465 624 l 725 972 l 901 972 l 525 483 l 732 0 l 569 0 l 418 353 l 160 0 l -18 0 z "},"Y":{"ha":833,"x_min":133,"x_max":922,"o":"m 282 0 l 349 369 l 133 972 l 293 972 l 443 533 l 746 972 l 922 972 l 496 369 l 429 0 l 282 0 z "},"Ý":{"ha":833,"x_min":133,"x_max":922,"o":"m 282 0 l 349 369 l 133 972 l 293 972 l 443 533 l 746 972 l 922 972 l 496 369 l 429 0 l 282 0 z "},"Ŷ":{"ha":833,"x_min":133,"x_max":922,"o":"m 282 0 l 349 369 l 133 972 l 293 972 l 443 533 l 746 972 l 922 972 l 496 369 l 429 0 l 282 0 z "},"Ÿ":{"ha":833,"x_min":133,"x_max":922,"o":"m 282 0 l 349 369 l 133 972 l 293 972 l 443 533 l 746 972 l 922 972 l 496 369 l 429 0 l 282 0 z "},"Ỳ":{"ha":833,"x_min":133,"x_max":922,"o":"m 282 0 l 349 369 l 133 972 l 293 972 l 443 533 l 746 972 l 922 972 l 496 369 l 429 0 l 282 0 z "},"Ỹ":{"ha":833,"x_min":133,"x_max":922,"o":"m 282 0 l 349 369 l 133 972 l 293 972 l 443 533 l 746 972 l 922 972 l 496 369 l 429 0 l 282 0 z "},"Z":{"ha":833,"x_min":25,"x_max":854,"o":"m 25 0 l 47 121 l 649 840 l 181 840 l 204 972 l 854 972 l 832 851 l 231 132 l 711 132 l 688 0 l 25 0 z "},"Ź":{"ha":833,"x_min":25,"x_max":854,"o":"m 25 0 l 47 121 l 649 840 l 181 840 l 204 972 l 854 972 l 832 851 l 231 132 l 711 132 l 688 0 l 25 0 z "},"Ž":{"ha":833,"x_min":25,"x_max":854,"o":"m 25 0 l 47 121 l 649 840 l 181 840 l 204 972 l 854 972 l 832 851 l 231 132 l 711 132 l 688 0 l 25 0 z "},"Ż":{"ha":833,"x_min":25,"x_max":854,"o":"m 25 0 l 47 121 l 649 840 l 181 840 l 204 972 l 854 972 l 832 851 l 231 132 l 711 132 l 688 0 l 25 0 z "},"a":{"ha":833,"x_min":44,"x_max":779,"o":"m 308 -17 q 175 19 235 -17 q 80 126 115 56 q 44 300 44 197 q 68 451 44 379 q 139 581 92 524 q 256 672 186 639 q 417 706 325 706 q 542 674 494 706 q 608 600 590 643 l 624 689 l 772 689 l 681 176 q 721 128 672 128 l 779 128 l 756 0 l 626 0 q 556 26 581 0 q 532 90 532 51 l 532 104 l 524 104 q 442 16 494 49 q 308 -17 390 -17 m 356 124 q 476 161 428 124 q 549 259 525 199 q 574 388 574 319 q 531 519 574 474 q 421 565 489 565 q 300 530 350 565 q 224 438 250 494 q 197 314 197 381 q 242 174 197 224 q 356 124 288 124 z "},"á":{"ha":833,"x_min":44,"x_max":779,"o":"m 308 -17 q 175 19 235 -17 q 80 126 115 56 q 44 300 44 197 q 68 451 44 379 q 139 581 92 524 q 256 672 186 639 q 417 706 325 706 q 542 674 494 706 q 608 600 590 643 l 624 689 l 772 689 l 681 176 q 721 128 672 128 l 779 128 l 756 0 l 626 0 q 556 26 581 0 q 532 90 532 51 l 532 104 l 524 104 q 442 16 494 49 q 308 -17 390 -17 m 356 124 q 476 161 428 124 q 549 259 525 199 q 574 388 574 319 q 531 519 574 474 q 421 565 489 565 q 300 530 350 565 q 224 438 250 494 q 197 314 197 381 q 242 174 197 224 q 356 124 288 124 z "},"ă":{"ha":833,"x_min":44,"x_max":779,"o":"m 308 -17 q 175 19 235 -17 q 80 126 115 56 q 44 300 44 197 q 68 451 44 379 q 139 581 92 524 q 256 672 186 639 q 417 706 325 706 q 542 674 494 706 q 608 600 590 643 l 624 689 l 772 689 l 681 176 q 721 128 672 128 l 779 128 l 756 0 l 626 0 q 556 26 581 0 q 532 90 532 51 l 532 104 l 524 104 q 442 16 494 49 q 308 -17 390 -17 m 356 124 q 476 161 428 124 q 549 259 525 199 q 574 388 574 319 q 531 519 574 474 q 421 565 489 565 q 300 530 350 565 q 224 438 250 494 q 197 314 197 381 q 242 174 197 224 q 356 124 288 124 z "},"â":{"ha":833,"x_min":44,"x_max":779,"o":"m 308 -17 q 175 19 235 -17 q 80 126 115 56 q 44 300 44 197 q 68 451 44 379 q 139 581 92 524 q 256 672 186 639 q 417 706 325 706 q 542 674 494 706 q 608 600 590 643 l 624 689 l 772 689 l 681 176 q 721 128 672 128 l 779 128 l 756 0 l 626 0 q 556 26 581 0 q 532 90 532 51 l 532 104 l 524 104 q 442 16 494 49 q 308 -17 390 -17 m 356 124 q 476 161 428 124 q 549 259 525 199 q 574 388 574 319 q 531 519 574 474 q 421 565 489 565 q 300 530 350 565 q 224 438 250 494 q 197 314 197 381 q 242 174 197 224 q 356 124 288 124 z "},"ä":{"ha":833,"x_min":44,"x_max":779,"o":"m 308 -17 q 175 19 235 -17 q 80 126 115 56 q 44 300 44 197 q 68 451 44 379 q 139 581 92 524 q 256 672 186 639 q 417 706 325 706 q 542 674 494 706 q 608 600 590 643 l 624 689 l 772 689 l 681 176 q 721 128 672 128 l 779 128 l 756 0 l 626 0 q 556 26 581 0 q 532 90 532 51 l 532 104 l 524 104 q 442 16 494 49 q 308 -17 390 -17 m 356 124 q 476 161 428 124 q 549 259 525 199 q 574 388 574 319 q 531 519 574 474 q 421 565 489 565 q 300 530 350 565 q 224 438 250 494 q 197 314 197 381 q 242 174 197 224 q 356 124 288 124 z "},"à":{"ha":833,"x_min":44,"x_max":779,"o":"m 308 -17 q 175 19 235 -17 q 80 126 115 56 q 44 300 44 197 q 68 451 44 379 q 139 581 92 524 q 256 672 186 639 q 417 706 325 706 q 542 674 494 706 q 608 600 590 643 l 624 689 l 772 689 l 681 176 q 721 128 672 128 l 779 128 l 756 0 l 626 0 q 556 26 581 0 q 532 90 532 51 l 532 104 l 524 104 q 442 16 494 49 q 308 -17 390 -17 m 356 124 q 476 161 428 124 q 549 259 525 199 q 574 388 574 319 q 531 519 574 474 q 421 565 489 565 q 300 530 350 565 q 224 438 250 494 q 197 314 197 381 q 242 174 197 224 q 356 124 288 124 z "},"ā":{"ha":833,"x_min":44,"x_max":779,"o":"m 308 -17 q 175 19 235 -17 q 80 126 115 56 q 44 300 44 197 q 68 451 44 379 q 139 581 92 524 q 256 672 186 639 q 417 706 325 706 q 542 674 494 706 q 608 600 590 643 l 624 689 l 772 689 l 681 176 q 721 128 672 128 l 779 128 l 756 0 l 626 0 q 556 26 581 0 q 532 90 532 51 l 532 104 l 524 104 q 442 16 494 49 q 308 -17 390 -17 m 356 124 q 476 161 428 124 q 549 259 525 199 q 574 388 574 319 q 531 519 574 474 q 421 565 489 565 q 300 530 350 565 q 224 438 250 494 q 197 314 197 381 q 242 174 197 224 q 356 124 288 124 z "},"ą":{"ha":833,"x_min":44,"x_max":779,"o":"m 308 -17 q 175 19 235 -17 q 80 126 115 56 q 44 300 44 197 q 68 451 44 379 q 139 581 92 524 q 256 672 186 639 q 417 706 325 706 q 542 674 494 706 q 608 600 590 643 l 624 689 l 772 689 l 681 176 q 721 128 672 128 l 779 128 l 756 0 l 626 0 q 556 26 581 0 q 532 90 532 51 l 532 104 l 524 104 q 442 16 494 49 q 308 -17 390 -17 m 356 124 q 476 161 428 124 q 549 259 525 199 q 574 388 574 319 q 531 519 574 474 q 421 565 489 565 q 300 530 350 565 q 224 438 250 494 q 197 314 197 381 q 242 174 197 224 q 356 124 288 124 z "},"å":{"ha":833,"x_min":44,"x_max":779,"o":"m 308 -17 q 175 19 235 -17 q 80 126 115 56 q 44 300 44 197 q 68 451 44 379 q 139 581 92 524 q 256 672 186 639 q 417 706 325 706 q 542 674 494 706 q 608 600 590 643 l 624 689 l 772 689 l 681 176 q 721 128 672 128 l 779 128 l 756 0 l 626 0 q 556 26 581 0 q 532 90 532 51 l 532 104 l 524 104 q 442 16 494 49 q 308 -17 390 -17 m 356 124 q 476 161 428 124 q 549 259 525 199 q 574 388 574 319 q 531 519 574 474 q 421 565 489 565 q 300 530 350 565 q 224 438 250 494 q 197 314 197 381 q 242 174 197 224 q 356 124 288 124 z "},"ã":{"ha":833,"x_min":44,"x_max":779,"o":"m 308 -17 q 175 19 235 -17 q 80 126 115 56 q 44 300 44 197 q 68 451 44 379 q 139 581 92 524 q 256 672 186 639 q 417 706 325 706 q 542 674 494 706 q 608 600 590 643 l 624 689 l 772 689 l 681 176 q 721 128 672 128 l 779 128 l 756 0 l 626 0 q 556 26 581 0 q 532 90 532 51 l 532 104 l 524 104 q 442 16 494 49 q 308 -17 390 -17 m 356 124 q 476 161 428 124 q 549 259 525 199 q 574 388 574 319 q 531 519 574 474 q 421 565 489 565 q 300 530 350 565 q 224 438 250 494 q 197 314 197 381 q 242 174 197 224 q 356 124 288 124 z "},"æ":{"ha":833,"x_min":14,"x_max":826,"o":"m 182 -17 q 59 55 104 -17 q 14 249 14 126 q 33 410 14 329 q 88 558 51 490 q 178 665 124 625 q 306 706 233 706 q 417 642 383 706 l 425 689 l 553 689 l 543 638 q 603 688 567 671 q 678 706 639 706 q 791 651 756 706 q 826 507 826 597 q 818 409 826 463 q 799 310 810 356 l 492 310 q 483 228 483 264 q 501 144 483 172 q 549 115 519 115 q 602 142 582 115 q 636 217 622 168 l 768 217 q 692 47 744 110 q 550 -17 639 -17 q 484 -1 515 -17 q 439 46 453 15 l 431 0 l 303 0 l 311 46 q 254 -1 285 14 q 182 -17 224 -17 m 514 422 l 686 422 q 690 481 690 456 q 674 554 690 531 q 632 578 658 578 q 565 538 596 578 q 514 422 533 497 m 226 117 q 288 147 261 117 q 335 225 315 176 q 365 329 354 274 q 375 436 375 385 q 358 540 375 507 q 306 572 340 572 q 242 544 271 572 q 195 469 214 515 q 166 367 176 422 q 156 258 156 311 q 174 151 156 186 q 226 117 193 117 z "},"ǽ":{"ha":833,"x_min":14,"x_max":826,"o":"m 182 -17 q 59 55 104 -17 q 14 249 14 126 q 33 410 14 329 q 88 558 51 490 q 178 665 124 625 q 306 706 233 706 q 417 642 383 706 l 425 689 l 553 689 l 543 638 q 603 688 567 671 q 678 706 639 706 q 791 651 756 706 q 826 507 826 597 q 818 409 826 463 q 799 310 810 356 l 492 310 q 483 228 483 264 q 501 144 483 172 q 549 115 519 115 q 602 142 582 115 q 636 217 622 168 l 768 217 q 692 47 744 110 q 550 -17 639 -17 q 484 -1 515 -17 q 439 46 453 15 l 431 0 l 303 0 l 311 46 q 254 -1 285 14 q 182 -17 224 -17 m 514 422 l 686 422 q 690 481 690 456 q 674 554 690 531 q 632 578 658 578 q 565 538 596 578 q 514 422 533 497 m 226 117 q 288 147 261 117 q 335 225 315 176 q 365 329 354 274 q 375 436 375 385 q 358 540 375 507 q 306 572 340 572 q 242 544 271 572 q 195 469 214 515 q 166 367 176 422 q 156 258 156 311 q 174 151 156 186 q 226 117 193 117 z "},"b":{"ha":833,"x_min":38,"x_max":764,"o":"m 401 -17 q 274 17 322 -17 q 203 106 226 50 l 194 106 l 165 0 l 38 0 l 214 1000 l 361 1000 l 293 614 q 378 678 324 651 q 507 706 433 706 q 638 668 581 706 q 730 561 696 631 q 764 394 764 492 q 720 190 764 283 q 595 40 676 96 q 401 -17 514 -17 m 388 124 q 511 160 461 124 q 586 256 561 196 q 611 385 611 315 q 570 519 611 472 q 460 565 529 565 q 338 528 388 565 q 261 433 288 492 q 235 306 235 374 q 278 169 235 215 q 388 124 321 124 z "},"c":{"ha":833,"x_min":88,"x_max":764,"o":"m 392 -17 q 231 23 300 -17 q 125 134 163 63 q 88 303 88 206 q 137 510 88 419 q 274 653 186 601 q 476 706 361 706 q 683 638 608 706 q 764 458 757 571 l 610 458 q 565 538 604 508 q 461 567 526 567 q 344 532 394 567 q 266 440 294 497 q 238 313 238 382 q 284 170 238 219 q 396 121 331 121 q 503 151 461 121 q 568 231 546 181 l 724 231 q 392 -17 649 -17 z "},"ć":{"ha":833,"x_min":88,"x_max":764,"o":"m 392 -17 q 231 23 300 -17 q 125 134 163 63 q 88 303 88 206 q 137 510 88 419 q 274 653 186 601 q 476 706 361 706 q 683 638 608 706 q 764 458 757 571 l 610 458 q 565 538 604 508 q 461 567 526 567 q 344 532 394 567 q 266 440 294 497 q 238 313 238 382 q 284 170 238 219 q 396 121 331 121 q 503 151 461 121 q 568 231 546 181 l 724 231 q 392 -17 649 -17 z "},"č":{"ha":833,"x_min":88,"x_max":764,"o":"m 392 -17 q 231 23 300 -17 q 125 134 163 63 q 88 303 88 206 q 137 510 88 419 q 274 653 186 601 q 476 706 361 706 q 683 638 608 706 q 764 458 757 571 l 610 458 q 565 538 604 508 q 461 567 526 567 q 344 532 394 567 q 266 440 294 497 q 238 313 238 382 q 284 170 238 219 q 396 121 331 121 q 503 151 461 121 q 568 231 546 181 l 724 231 q 392 -17 649 -17 z "},"ç":{"ha":833,"x_min":88,"x_max":764,"o":"m 392 -17 q 231 23 300 -17 q 125 134 163 63 q 88 303 88 206 q 137 510 88 419 q 274 653 186 601 q 476 706 361 706 q 683 638 608 706 q 764 458 757 571 l 610 458 q 565 538 604 508 q 461 567 526 567 q 344 532 394 567 q 266 440 294 497 q 238 313 238 382 q 284 170 238 219 q 396 121 331 121 q 503 151 461 121 q 568 231 546 181 l 724 231 q 392 -17 649 -17 z "},"ċ":{"ha":833,"x_min":88,"x_max":764,"o":"m 392 -17 q 231 23 300 -17 q 125 134 163 63 q 88 303 88 206 q 137 510 88 419 q 274 653 186 601 q 476 706 361 706 q 683 638 608 706 q 764 458 757 571 l 610 458 q 565 538 604 508 q 461 567 526 567 q 344 532 394 567 q 266 440 294 497 q 238 313 238 382 q 284 170 238 219 q 396 121 331 121 q 503 151 461 121 q 568 231 546 181 l 724 231 q 392 -17 649 -17 z "},"d":{"ha":833,"x_min":44,"x_max":826,"o":"m 308 -17 q 175 19 235 -17 q 80 126 115 56 q 44 300 44 197 q 68 451 44 379 q 139 581 92 524 q 256 672 186 639 q 417 706 325 706 q 542 674 494 706 q 608 600 590 643 l 679 1000 l 826 1000 l 681 176 q 721 128 672 128 l 779 128 l 756 0 l 626 0 q 556 26 581 0 q 532 90 532 51 l 532 104 l 524 104 q 442 16 494 49 q 308 -17 390 -17 m 356 124 q 476 161 428 124 q 549 259 525 199 q 574 388 574 319 q 531 519 574 474 q 421 565 489 565 q 300 530 350 565 q 224 438 250 494 q 197 314 197 381 q 242 174 197 224 q 356 124 288 124 z "},"ð":{"ha":833,"x_min":72,"x_max":840,"o":"m 390 -17 q 220 24 292 -17 q 110 137 149 65 q 72 301 72 208 q 97 451 72 379 q 168 578 121 522 q 285 668 215 635 q 444 701 354 701 q 573 676 514 701 q 664 599 632 650 l 674 599 q 593 810 650 714 l 383 746 l 401 851 l 538 893 q 436 1000 494 947 l 606 1000 q 668 933 639 969 l 840 986 l 822 881 l 722 850 q 784 690 763 778 q 806 494 806 601 q 759 237 806 353 q 621 52 713 121 q 390 -17 529 -17 m 399 122 q 523 157 469 122 q 607 249 576 192 q 638 376 638 307 q 588 513 638 463 q 460 563 538 563 q 335 528 388 563 q 253 437 282 493 q 224 315 224 381 q 272 174 224 226 q 399 122 321 122 z "},"ď":{"ha":833,"x_min":44,"x_max":1107,"o":"m 308 -17 q 175 19 235 -17 q 80 126 115 56 q 44 300 44 197 q 68 451 44 379 q 139 581 92 524 q 256 672 186 639 q 417 706 325 706 q 542 674 494 706 q 608 600 590 643 l 679 1000 l 826 1000 l 681 176 q 721 128 672 128 l 779 128 l 756 0 l 626 0 q 556 26 581 0 q 532 90 532 51 l 532 104 l 524 104 q 442 16 494 49 q 308 -17 390 -17 m 356 124 q 476 161 428 124 q 549 259 525 199 q 574 388 574 319 q 531 519 574 474 q 421 565 489 565 q 300 530 350 565 q 224 438 250 494 q 197 314 197 381 q 242 174 197 224 q 356 124 288 124 m 829 689 l 933 1000 l 1107 1000 l 947 689 l 829 689 z "},"đ":{"ha":833,"x_min":44,"x_max":918,"o":"m 308 -17 q 175 19 235 -17 q 80 126 115 56 q 44 300 44 197 q 68 451 44 379 q 139 581 92 524 q 256 672 186 639 q 417 706 325 706 q 542 674 494 706 q 608 600 590 643 l 643 799 l 444 799 l 465 917 l 664 917 l 679 1000 l 826 1000 l 811 917 l 918 917 l 897 799 l 790 799 l 681 176 q 721 128 672 128 l 779 128 l 756 0 l 626 0 q 556 26 581 0 q 532 90 532 51 l 532 104 l 524 104 q 442 16 494 49 q 308 -17 390 -17 m 356 124 q 476 161 428 124 q 549 259 525 199 q 574 388 574 319 q 531 519 574 474 q 421 565 489 565 q 300 530 350 565 q 224 438 250 494 q 197 314 197 381 q 242 174 197 224 q 356 124 288 124 z "},"e":{"ha":833,"x_min":78,"x_max":761,"o":"m 381 -17 q 221 23 289 -17 q 115 135 153 63 q 78 307 78 208 q 127 507 78 417 q 266 651 176 597 q 476 706 356 706 q 631 670 568 706 q 728 574 694 635 q 761 435 761 513 q 756 372 761 404 q 742 310 750 340 l 222 310 q 271 166 224 217 q 392 115 318 115 q 497 142 456 115 q 561 217 539 169 l 710 217 q 593 47 669 111 q 381 -17 517 -17 m 458 578 q 319 534 374 578 q 240 422 264 490 l 617 422 l 617 436 q 574 541 617 504 q 458 578 532 578 z "},"é":{"ha":833,"x_min":78,"x_max":761,"o":"m 381 -17 q 221 23 289 -17 q 115 135 153 63 q 78 307 78 208 q 127 507 78 417 q 266 651 176 597 q 476 706 356 706 q 631 670 568 706 q 728 574 694 635 q 761 435 761 513 q 756 372 761 404 q 742 310 750 340 l 222 310 q 271 166 224 217 q 392 115 318 115 q 497 142 456 115 q 561 217 539 169 l 710 217 q 593 47 669 111 q 381 -17 517 -17 m 458 578 q 319 534 374 578 q 240 422 264 490 l 617 422 l 617 436 q 574 541 617 504 q 458 578 532 578 z "},"ĕ":{"ha":833,"x_min":78,"x_max":761,"o":"m 381 -17 q 221 23 289 -17 q 115 135 153 63 q 78 307 78 208 q 127 507 78 417 q 266 651 176 597 q 476 706 356 706 q 631 670 568 706 q 728 574 694 635 q 761 435 761 513 q 756 372 761 404 q 742 310 750 340 l 222 310 q 271 166 224 217 q 392 115 318 115 q 497 142 456 115 q 561 217 539 169 l 710 217 q 593 47 669 111 q 381 -17 517 -17 m 458 578 q 319 534 374 578 q 240 422 264 490 l 617 422 l 617 436 q 574 541 617 504 q 458 578 532 578 z "},"ě":{"ha":833,"x_min":78,"x_max":761,"o":"m 381 -17 q 221 23 289 -17 q 115 135 153 63 q 78 307 78 208 q 127 507 78 417 q 266 651 176 597 q 476 706 356 706 q 631 670 568 706 q 728 574 694 635 q 761 435 761 513 q 756 372 761 404 q 742 310 750 340 l 222 310 q 271 166 224 217 q 392 115 318 115 q 497 142 456 115 q 561 217 539 169 l 710 217 q 593 47 669 111 q 381 -17 517 -17 m 458 578 q 319 534 374 578 q 240 422 264 490 l 617 422 l 617 436 q 574 541 617 504 q 458 578 532 578 z "},"ê":{"ha":833,"x_min":78,"x_max":761,"o":"m 381 -17 q 221 23 289 -17 q 115 135 153 63 q 78 307 78 208 q 127 507 78 417 q 266 651 176 597 q 476 706 356 706 q 631 670 568 706 q 728 574 694 635 q 761 435 761 513 q 756 372 761 404 q 742 310 750 340 l 222 310 q 271 166 224 217 q 392 115 318 115 q 497 142 456 115 q 561 217 539 169 l 710 217 q 593 47 669 111 q 381 -17 517 -17 m 458 578 q 319 534 374 578 q 240 422 264 490 l 617 422 l 617 436 q 574 541 617 504 q 458 578 532 578 z "},"ë":{"ha":833,"x_min":78,"x_max":761,"o":"m 381 -17 q 221 23 289 -17 q 115 135 153 63 q 78 307 78 208 q 127 507 78 417 q 266 651 176 597 q 476 706 356 706 q 631 670 568 706 q 728 574 694 635 q 761 435 761 513 q 756 372 761 404 q 742 310 750 340 l 222 310 q 271 166 224 217 q 392 115 318 115 q 497 142 456 115 q 561 217 539 169 l 710 217 q 593 47 669 111 q 381 -17 517 -17 m 458 578 q 319 534 374 578 q 240 422 264 490 l 617 422 l 617 436 q 574 541 617 504 q 458 578 532 578 z "},"ė":{"ha":833,"x_min":78,"x_max":761,"o":"m 381 -17 q 221 23 289 -17 q 115 135 153 63 q 78 307 78 208 q 127 507 78 417 q 266 651 176 597 q 476 706 356 706 q 631 670 568 706 q 728 574 694 635 q 761 435 761 513 q 756 372 761 404 q 742 310 750 340 l 222 310 q 271 166 224 217 q 392 115 318 115 q 497 142 456 115 q 561 217 539 169 l 710 217 q 593 47 669 111 q 381 -17 517 -17 m 458 578 q 319 534 374 578 q 240 422 264 490 l 617 422 l 617 436 q 574 541 617 504 q 458 578 532 578 z "},"è":{"ha":833,"x_min":78,"x_max":761,"o":"m 381 -17 q 221 23 289 -17 q 115 135 153 63 q 78 307 78 208 q 127 507 78 417 q 266 651 176 597 q 476 706 356 706 q 631 670 568 706 q 728 574 694 635 q 761 435 761 513 q 756 372 761 404 q 742 310 750 340 l 222 310 q 271 166 224 217 q 392 115 318 115 q 497 142 456 115 q 561 217 539 169 l 710 217 q 593 47 669 111 q 381 -17 517 -17 m 458 578 q 319 534 374 578 q 240 422 264 490 l 617 422 l 617 436 q 574 541 617 504 q 458 578 532 578 z "},"ē":{"ha":833,"x_min":78,"x_max":761,"o":"m 381 -17 q 221 23 289 -17 q 115 135 153 63 q 78 307 78 208 q 127 507 78 417 q 266 651 176 597 q 476 706 356 706 q 631 670 568 706 q 728 574 694 635 q 761 435 761 513 q 756 372 761 404 q 742 310 750 340 l 222 310 q 271 166 224 217 q 392 115 318 115 q 497 142 456 115 q 561 217 539 169 l 710 217 q 593 47 669 111 q 381 -17 517 -17 m 458 578 q 319 534 374 578 q 240 422 264 490 l 617 422 l 617 436 q 574 541 617 504 q 458 578 532 578 z "},"ę":{"ha":833,"x_min":78,"x_max":761,"o":"m 381 -17 q 221 23 289 -17 q 115 135 153 63 q 78 307 78 208 q 127 507 78 417 q 266 651 176 597 q 476 706 356 706 q 631 670 568 706 q 728 574 694 635 q 761 435 761 513 q 756 372 761 404 q 742 310 750 340 l 222 310 q 271 166 224 217 q 392 115 318 115 q 497 142 456 115 q 561 217 539 169 l 710 217 q 593 47 669 111 q 381 -17 517 -17 m 458 578 q 319 534 374 578 q 240 422 264 490 l 617 422 l 617 436 q 574 541 617 504 q 458 578 532 578 z "},"ẽ":{"ha":833,"x_min":78,"x_max":761,"o":"m 381 -17 q 221 23 289 -17 q 115 135 153 63 q 78 307 78 208 q 127 507 78 417 q 266 651 176 597 q 476 706 356 706 q 631 670 568 706 q 728 574 694 635 q 761 435 761 513 q 756 372 761 404 q 742 310 750 340 l 222 310 q 271 166 224 217 q 392 115 318 115 q 497 142 456 115 q 561 217 539 169 l 710 217 q 593 47 669 111 q 381 -17 517 -17 m 458 578 q 319 534 374 578 q 240 422 264 490 l 617 422 l 617 436 q 574 541 617 504 q 458 578 532 578 z "},"ə":{"ha":833,"x_min":71,"x_max":751,"o":"m 363 -17 q 206 20 272 -17 q 106 119 140 57 q 71 258 71 182 q 76 326 71 294 q 88 379 82 357 l 607 379 q 558 523 606 472 q 438 574 510 574 q 331 547 374 574 q 268 472 288 519 l 119 472 q 233 641 149 576 q 449 706 317 706 q 608 666 540 706 q 714 553 676 626 q 751 382 751 481 q 705 183 751 274 q 571 38 658 92 q 363 -17 483 -17 m 375 111 q 511 155 457 111 q 589 267 565 199 l 213 267 l 213 253 q 258 151 213 190 q 375 111 303 111 z "},"f":{"ha":833,"x_min":-19,"x_max":803,"o":"m -19 -306 l 4 -176 l 117 -176 q 190 -156 165 -176 q 222 -89 214 -136 l 338 564 l 164 564 l 185 689 l 360 689 l 376 785 q 459 950 397 900 q 635 1000 521 1000 l 803 1000 l 779 871 l 629 871 q 556 851 581 871 q 524 783 532 832 l 507 689 l 747 689 l 725 564 l 485 564 l 369 -90 q 292 -256 349 -206 q 111 -306 236 -306 l -19 -306 z "},"g":{"ha":833,"x_min":22,"x_max":854,"o":"m 411 199 q 292 222 344 199 l 246 178 q 229 144 229 161 q 264 119 229 119 l 446 119 q 619 72 556 119 q 683 -65 683 25 q 588 -253 683 -185 q 324 -322 492 -322 q 103 -269 183 -322 q 22 -124 22 -217 q 48 -31 22 -69 q 117 36 74 8 q 83 118 83 68 q 132 219 83 175 l 208 289 q 167 419 167 344 q 206 567 167 503 q 317 669 246 632 q 485 706 389 706 q 583 689 539 706 l 854 689 l 838 592 l 714 585 l 711 565 q 725 486 725 528 q 687 338 725 403 q 578 236 649 274 q 411 199 508 199 m 425 317 q 545 363 499 317 q 592 475 592 410 q 556 555 592 524 q 465 586 521 586 q 348 542 393 586 q 303 433 303 499 q 336 347 303 378 q 425 317 369 317 m 165 -99 q 211 -174 165 -149 q 335 -200 257 -200 q 483 -168 426 -200 q 540 -78 540 -136 q 508 -16 540 -39 q 399 7 476 7 l 233 7 q 165 -99 165 -39 z "},"ğ":{"ha":833,"x_min":22,"x_max":854,"o":"m 411 199 q 292 222 344 199 l 246 178 q 229 144 229 161 q 264 119 229 119 l 446 119 q 619 72 556 119 q 683 -65 683 25 q 588 -253 683 -185 q 324 -322 492 -322 q 103 -269 183 -322 q 22 -124 22 -217 q 48 -31 22 -69 q 117 36 74 8 q 83 118 83 68 q 132 219 83 175 l 208 289 q 167 419 167 344 q 206 567 167 503 q 317 669 246 632 q 485 706 389 706 q 583 689 539 706 l 854 689 l 838 592 l 714 585 l 711 565 q 725 486 725 528 q 687 338 725 403 q 578 236 649 274 q 411 199 508 199 m 425 317 q 545 363 499 317 q 592 475 592 410 q 556 555 592 524 q 465 586 521 586 q 348 542 393 586 q 303 433 303 499 q 336 347 303 378 q 425 317 369 317 m 165 -99 q 211 -174 165 -149 q 335 -200 257 -200 q 483 -168 426 -200 q 540 -78 540 -136 q 508 -16 540 -39 q 399 7 476 7 l 233 7 q 165 -99 165 -39 z "},"ģ":{"ha":833,"x_min":22,"x_max":854,"o":"m 411 199 q 292 222 344 199 l 246 178 q 229 144 229 161 q 264 119 229 119 l 446 119 q 619 72 556 119 q 683 -65 683 25 q 588 -253 683 -185 q 324 -322 492 -322 q 103 -269 183 -322 q 22 -124 22 -217 q 48 -31 22 -69 q 117 36 74 8 q 83 118 83 68 q 132 219 83 175 l 208 289 q 167 419 167 344 q 206 567 167 503 q 317 669 246 632 q 485 706 389 706 q 583 689 539 706 l 854 689 l 838 592 l 714 585 l 711 565 q 725 486 725 528 q 687 338 725 403 q 578 236 649 274 q 411 199 508 199 m 425 317 q 545 363 499 317 q 592 475 592 410 q 556 555 592 524 q 465 586 521 586 q 348 542 393 586 q 303 433 303 499 q 336 347 303 378 q 425 317 369 317 m 165 -99 q 211 -174 165 -149 q 335 -200 257 -200 q 483 -168 426 -200 q 540 -78 540 -136 q 508 -16 540 -39 q 399 7 476 7 l 233 7 q 165 -99 165 -39 m 406 783 l 579 1057 l 708 1057 l 586 783 l 406 783 z "},"ġ":{"ha":833,"x_min":22,"x_max":854,"o":"m 411 199 q 292 222 344 199 l 246 178 q 229 144 229 161 q 264 119 229 119 l 446 119 q 619 72 556 119 q 683 -65 683 25 q 588 -253 683 -185 q 324 -322 492 -322 q 103 -269 183 -322 q 22 -124 22 -217 q 48 -31 22 -69 q 117 36 74 8 q 83 118 83 68 q 132 219 83 175 l 208 289 q 167 419 167 344 q 206 567 167 503 q 317 669 246 632 q 485 706 389 706 q 583 689 539 706 l 854 689 l 838 592 l 714 585 l 711 565 q 725 486 725 528 q 687 338 725 403 q 578 236 649 274 q 411 199 508 199 m 425 317 q 545 363 499 317 q 592 475 592 410 q 556 555 592 524 q 465 586 521 586 q 348 542 393 586 q 303 433 303 499 q 336 347 303 378 q 425 317 369 317 m 165 -99 q 211 -174 165 -149 q 335 -200 257 -200 q 483 -168 426 -200 q 540 -78 540 -136 q 508 -16 540 -39 q 399 7 476 7 l 233 7 q 165 -99 165 -39 z "},"h":{"ha":833,"x_min":46,"x_max":775,"o":"m 46 0 l 221 1000 l 368 1000 l 299 600 q 387 675 329 644 q 519 706 444 706 q 712 622 649 706 q 750 393 775 538 l 682 0 l 535 0 l 603 386 q 581 518 618 469 q 468 567 544 567 q 333 515 392 567 q 258 367 275 464 l 193 0 l 46 0 z "},"i":{"ha":833,"x_min":172,"x_max":694,"o":"m 504 794 q 422 826 456 794 q 389 903 389 857 q 422 979 389 949 q 504 1010 456 1010 q 585 979 553 1010 q 618 903 618 949 q 585 826 618 857 q 504 794 553 794 m 446 0 q 336 47 372 0 q 314 171 300 93 l 375 515 q 339 561 383 561 l 172 561 l 194 689 l 388 689 q 507 647 476 689 q 522 517 538 606 l 461 174 q 499 128 454 128 l 694 128 l 672 0 l 446 0 z "},"ı":{"ha":833,"x_min":172,"x_max":694,"o":"m 446 0 q 336 47 372 0 q 314 171 300 93 l 375 515 q 339 561 383 561 l 172 561 l 194 689 l 388 689 q 507 647 476 689 q 522 517 538 606 l 461 174 q 499 128 454 128 l 694 128 l 672 0 l 446 0 z "},"í":{"ha":833,"x_min":172,"x_max":751,"o":"m 446 0 q 336 47 372 0 q 314 171 300 93 l 375 515 q 339 561 383 561 l 172 561 l 194 689 l 388 689 q 507 647 476 689 q 522 517 538 606 l 461 174 q 499 128 454 128 l 694 128 l 672 0 l 446 0 z "},"ĭ":{"ha":833,"x_min":172,"x_max":736,"o":"m 446 0 q 336 47 372 0 q 314 171 300 93 l 375 515 q 339 561 383 561 l 172 561 l 194 689 l 388 689 q 507 647 476 689 q 522 517 538 606 l 461 174 q 499 128 454 128 l 694 128 l 672 0 l 446 0 z "},"î":{"ha":833,"x_min":172,"x_max":706,"o":"m 446 0 q 336 47 372 0 q 314 171 300 93 l 375 515 q 339 561 383 561 l 172 561 l 194 689 l 388 689 q 507 647 476 689 q 522 517 538 606 l 461 174 q 499 128 454 128 l 694 128 l 672 0 l 446 0 z "},"ï":{"ha":833,"x_min":172,"x_max":728,"o":"m 446 0 q 336 47 372 0 q 314 171 300 93 l 375 515 q 339 561 383 561 l 172 561 l 194 689 l 388 689 q 507 647 476 689 q 522 517 538 606 l 461 174 q 499 128 454 128 l 694 128 l 672 0 l 446 0 z "},"ì":{"ha":833,"x_min":172,"x_max":694,"o":"m 446 0 q 336 47 372 0 q 314 171 300 93 l 375 515 q 339 561 383 561 l 172 561 l 194 689 l 388 689 q 507 647 476 689 q 522 517 538 606 l 461 174 q 499 128 454 128 l 694 128 l 672 0 l 446 0 z "},"ī":{"ha":833,"x_min":172,"x_max":756,"o":"m 446 0 q 336 47 372 0 q 314 171 300 93 l 375 515 q 339 561 383 561 l 172 561 l 194 689 l 388 689 q 507 647 476 689 q 522 517 538 606 l 461 174 q 499 128 454 128 l 694 128 l 672 0 l 446 0 z "},"į":{"ha":833,"x_min":172,"x_max":694,"o":"m 446 0 q 336 47 372 0 q 314 171 300 93 l 375 515 q 339 561 383 561 l 172 561 l 194 689 l 388 689 q 507 647 476 689 q 522 517 538 606 l 461 174 q 499 128 454 128 l 694 128 l 672 0 l 446 0 z "},"ĩ":{"ha":833,"x_min":172,"x_max":756,"o":"m 446 0 q 336 47 372 0 q 314 171 300 93 l 375 515 q 339 561 383 561 l 172 561 l 194 689 l 388 689 q 507 647 476 689 q 522 517 538 606 l 461 174 q 499 128 454 128 l 694 128 l 672 0 l 446 0 z "},"j":{"ha":833,"x_min":-32,"x_max":699,"o":"m 585 794 q 503 826 536 794 q 469 903 469 857 q 503 979 469 949 q 585 1010 536 1010 q 666 979 633 1010 q 699 903 699 949 q 666 826 699 857 q 585 794 633 794 m -32 -306 l -8 -178 l 289 -178 q 342 -132 333 -178 l 456 515 q 418 561 464 561 l 229 561 l 251 689 l 463 689 q 585 647 553 689 q 603 518 618 606 l 488 -135 q 425 -266 472 -226 q 288 -306 378 -306 l -32 -306 z "},"k":{"ha":833,"x_min":67,"x_max":782,"o":"m 67 0 l 242 1000 l 389 1000 l 285 407 l 590 689 l 782 689 l 439 375 l 438 365 l 700 0 l 529 0 l 276 354 l 214 0 l 67 0 z "},"ķ":{"ha":833,"x_min":67,"x_max":782,"o":"m 67 0 l 242 1000 l 389 1000 l 285 407 l 590 689 l 782 689 l 439 375 l 438 365 l 700 0 l 529 0 l 276 354 l 214 0 l 67 0 m 129 -385 l 254 -94 l 442 -94 l 267 -385 l 129 -385 z "},"l":{"ha":833,"x_min":228,"x_max":694,"o":"m 446 0 q 336 47 372 0 q 314 171 300 93 l 431 826 q 394 872 439 872 l 228 872 l 250 1000 l 443 1000 q 563 958 532 1000 q 578 828 593 917 l 461 174 q 499 128 454 128 l 694 128 l 672 0 l 446 0 z "},"ĺ":{"ha":833,"x_min":228,"x_max":811,"o":"m 446 0 q 336 47 372 0 q 314 171 300 93 l 431 826 q 394 872 439 872 l 228 872 l 250 1000 l 443 1000 q 563 958 532 1000 q 578 828 593 917 l 461 174 q 499 128 454 128 l 694 128 l 672 0 l 446 0 z "},"ľ":{"ha":833,"x_min":228,"x_max":928,"o":"m 446 0 q 336 47 372 0 q 314 171 300 93 l 431 826 q 394 872 439 872 l 228 872 l 250 1000 l 443 1000 q 563 958 532 1000 q 578 828 593 917 l 461 174 q 499 128 454 128 l 694 128 l 672 0 l 446 0 m 650 682 l 754 993 l 928 993 l 768 682 l 650 682 z "},"ļ":{"ha":833,"x_min":228,"x_max":694,"o":"m 446 0 q 336 47 372 0 q 314 171 300 93 l 431 826 q 394 872 439 872 l 228 872 l 250 1000 l 443 1000 q 563 958 532 1000 q 578 828 593 917 l 461 174 q 499 128 454 128 l 694 128 l 672 0 l 446 0 m 238 -385 l 363 -94 l 550 -94 l 375 -385 l 238 -385 z "},"ŀ":{"ha":833,"x_min":228,"x_max":974,"o":"m 446 0 q 336 47 372 0 q 314 171 300 93 l 431 826 q 394 872 439 872 l 228 872 l 250 1000 l 443 1000 q 563 958 532 1000 q 578 828 593 917 l 461 174 q 499 128 454 128 l 694 128 l 672 0 l 446 0 z "},"ł":{"ha":833,"x_min":201,"x_max":700,"o":"m 201 357 l 225 492 l 382 554 l 431 826 q 394 872 439 872 l 228 872 l 250 1000 l 443 1000 q 563 958 532 1000 q 578 828 593 917 l 540 617 l 700 681 l 676 546 l 517 482 l 461 174 q 499 128 454 128 l 694 128 l 672 0 l 446 0 q 336 47 372 0 q 314 171 300 93 l 358 419 l 201 357 z "},"m":{"ha":833,"x_min":17,"x_max":851,"o":"m 17 0 l 107 515 q 68 561 115 561 l 47 561 l 71 689 l 171 689 q 233 668 211 689 q 256 613 256 647 l 256 611 l 263 611 q 320 681 283 656 q 411 706 357 706 q 497 681 463 706 q 542 610 532 656 l 547 610 q 603 678 564 651 q 699 706 642 706 q 813 651 775 706 q 836 515 851 597 l 744 0 l 606 0 l 690 486 q 683 551 699 526 q 632 576 668 576 q 568 547 594 576 q 533 465 542 518 l 450 0 l 311 0 l 396 486 q 389 551 404 526 q 338 576 374 576 q 274 547 300 576 q 239 465 247 518 l 156 0 l 17 0 z "},"n":{"ha":833,"x_min":65,"x_max":781,"o":"m 72 0 l 163 513 q 124 561 171 561 l 65 561 l 88 689 l 213 689 q 290 664 264 689 q 315 599 315 639 l 315 592 l 324 592 q 413 675 357 644 q 547 706 469 706 q 687 665 633 706 q 760 553 740 624 q 764 396 781 483 l 694 0 l 547 0 l 615 386 q 597 519 631 468 q 486 569 564 569 q 356 517 410 569 q 283 367 301 464 l 219 0 l 72 0 z "},"ń":{"ha":833,"x_min":65,"x_max":781,"o":"m 72 0 l 163 513 q 124 561 171 561 l 65 561 l 88 689 l 213 689 q 290 664 264 689 q 315 599 315 639 l 315 592 l 324 592 q 413 675 357 644 q 547 706 469 706 q 687 665 633 706 q 760 553 740 624 q 764 396 781 483 l 694 0 l 547 0 l 615 386 q 597 519 631 468 q 486 569 564 569 q 356 517 410 569 q 283 367 301 464 l 219 0 l 72 0 z "},"ň":{"ha":833,"x_min":65,"x_max":781,"o":"m 72 0 l 163 513 q 124 561 171 561 l 65 561 l 88 689 l 213 689 q 290 664 264 689 q 315 599 315 639 l 315 592 l 324 592 q 413 675 357 644 q 547 706 469 706 q 687 665 633 706 q 760 553 740 624 q 764 396 781 483 l 694 0 l 547 0 l 615 386 q 597 519 631 468 q 486 569 564 569 q 356 517 410 569 q 283 367 301 464 l 219 0 l 72 0 z "},"ņ":{"ha":833,"x_min":65,"x_max":781,"o":"m 72 0 l 163 513 q 124 561 171 561 l 65 561 l 88 689 l 213 689 q 290 664 264 689 q 315 599 315 639 l 315 592 l 324 592 q 413 675 357 644 q 547 706 469 706 q 687 665 633 706 q 760 553 740 624 q 764 396 781 483 l 694 0 l 547 0 l 615 386 q 597 519 631 468 q 486 569 564 569 q 356 517 410 569 q 283 367 301 464 l 219 0 l 72 0 m 156 -385 l 281 -94 l 468 -94 l 293 -385 l 156 -385 z "},"ñ":{"ha":833,"x_min":65,"x_max":781,"o":"m 72 0 l 163 513 q 124 561 171 561 l 65 561 l 88 689 l 213 689 q 290 664 264 689 q 315 599 315 639 l 315 592 l 324 592 q 413 675 357 644 q 547 706 469 706 q 687 665 633 706 q 760 553 740 624 q 764 396 781 483 l 694 0 l 547 0 l 615 386 q 597 519 631 468 q 486 569 564 569 q 356 517 410 569 q 283 367 301 464 l 219 0 l 72 0 z "},"o":{"ha":833,"x_min":67,"x_max":767,"o":"m 378 -17 q 212 24 282 -17 q 104 136 142 64 q 67 304 67 208 q 115 505 67 414 q 251 651 163 596 q 458 706 339 706 q 622 665 553 706 q 728 553 690 625 q 767 385 767 481 q 719 185 767 276 q 584 38 671 93 q 378 -17 497 -17 m 385 124 q 509 157 457 124 q 589 247 561 190 q 617 372 617 303 q 569 516 617 467 q 449 565 522 565 q 324 532 376 565 q 244 442 272 499 q 217 317 217 386 q 265 172 217 219 q 385 124 313 124 z "},"ó":{"ha":833,"x_min":67,"x_max":767,"o":"m 378 -17 q 212 24 282 -17 q 104 136 142 64 q 67 304 67 208 q 115 505 67 414 q 251 651 163 596 q 458 706 339 706 q 622 665 553 706 q 728 553 690 625 q 767 385 767 481 q 719 185 767 276 q 584 38 671 93 q 378 -17 497 -17 m 385 124 q 509 157 457 124 q 589 247 561 190 q 617 372 617 303 q 569 516 617 467 q 449 565 522 565 q 324 532 376 565 q 244 442 272 499 q 217 317 217 386 q 265 172 217 219 q 385 124 313 124 z "},"ŏ":{"ha":833,"x_min":67,"x_max":767,"o":"m 378 -17 q 212 24 282 -17 q 104 136 142 64 q 67 304 67 208 q 115 505 67 414 q 251 651 163 596 q 458 706 339 706 q 622 665 553 706 q 728 553 690 625 q 767 385 767 481 q 719 185 767 276 q 584 38 671 93 q 378 -17 497 -17 m 385 124 q 509 157 457 124 q 589 247 561 190 q 617 372 617 303 q 569 516 617 467 q 449 565 522 565 q 324 532 376 565 q 244 442 272 499 q 217 317 217 386 q 265 172 217 219 q 385 124 313 124 z "},"ô":{"ha":833,"x_min":67,"x_max":767,"o":"m 378 -17 q 212 24 282 -17 q 104 136 142 64 q 67 304 67 208 q 115 505 67 414 q 251 651 163 596 q 458 706 339 706 q 622 665 553 706 q 728 553 690 625 q 767 385 767 481 q 719 185 767 276 q 584 38 671 93 q 378 -17 497 -17 m 385 124 q 509 157 457 124 q 589 247 561 190 q 617 372 617 303 q 569 516 617 467 q 449 565 522 565 q 324 532 376 565 q 244 442 272 499 q 217 317 217 386 q 265 172 217 219 q 385 124 313 124 z "},"ö":{"ha":833,"x_min":67,"x_max":767,"o":"m 378 -17 q 212 24 282 -17 q 104 136 142 64 q 67 304 67 208 q 115 505 67 414 q 251 651 163 596 q 458 706 339 706 q 622 665 553 706 q 728 553 690 625 q 767 385 767 481 q 719 185 767 276 q 584 38 671 93 q 378 -17 497 -17 m 385 124 q 509 157 457 124 q 589 247 561 190 q 617 372 617 303 q 569 516 617 467 q 449 565 522 565 q 324 532 376 565 q 244 442 272 499 q 217 317 217 386 q 265 172 217 219 q 385 124 313 124 z "},"ò":{"ha":833,"x_min":67,"x_max":767,"o":"m 378 -17 q 212 24 282 -17 q 104 136 142 64 q 67 304 67 208 q 115 505 67 414 q 251 651 163 596 q 458 706 339 706 q 622 665 553 706 q 728 553 690 625 q 767 385 767 481 q 719 185 767 276 q 584 38 671 93 q 378 -17 497 -17 m 385 124 q 509 157 457 124 q 589 247 561 190 q 617 372 617 303 q 569 516 617 467 q 449 565 522 565 q 324 532 376 565 q 244 442 272 499 q 217 317 217 386 q 265 172 217 219 q 385 124 313 124 z "},"ő":{"ha":833,"x_min":67,"x_max":799,"o":"m 378 -17 q 212 24 282 -17 q 104 136 142 64 q 67 304 67 208 q 115 505 67 414 q 251 651 163 596 q 458 706 339 706 q 622 665 553 706 q 728 553 690 625 q 767 385 767 481 q 719 185 767 276 q 584 38 671 93 q 378 -17 497 -17 m 385 124 q 509 157 457 124 q 589 247 561 190 q 617 372 617 303 q 569 516 617 467 q 449 565 522 565 q 324 532 376 565 q 244 442 272 499 q 217 317 217 386 q 265 172 217 219 q 385 124 313 124 z "},"ō":{"ha":833,"x_min":67,"x_max":767,"o":"m 378 -17 q 212 24 282 -17 q 104 136 142 64 q 67 304 67 208 q 115 505 67 414 q 251 651 163 596 q 458 706 339 706 q 622 665 553 706 q 728 553 690 625 q 767 385 767 481 q 719 185 767 276 q 584 38 671 93 q 378 -17 497 -17 m 385 124 q 509 157 457 124 q 589 247 561 190 q 617 372 617 303 q 569 516 617 467 q 449 565 522 565 q 324 532 376 565 q 244 442 272 499 q 217 317 217 386 q 265 172 217 219 q 385 124 313 124 z "},"ø":{"ha":833,"x_min":-8,"x_max":842,"o":"m -8 -28 l 121 108 q 67 304 67 189 q 115 505 67 414 q 251 651 163 596 q 458 706 339 706 q 642 651 565 706 l 704 717 l 842 717 l 711 581 q 767 385 767 500 q 719 185 767 276 q 584 38 671 93 q 378 -17 497 -17 q 192 38 268 -17 l 129 -28 l -8 -28 m 217 317 q 232 224 217 264 l 538 542 q 449 565 499 565 q 324 532 376 565 q 244 442 272 499 q 217 317 217 386 m 385 124 q 509 157 457 124 q 589 247 561 190 q 617 372 617 303 q 600 465 617 425 l 296 146 q 385 124 333 124 z "},"õ":{"ha":833,"x_min":67,"x_max":767,"o":"m 378 -17 q 212 24 282 -17 q 104 136 142 64 q 67 304 67 208 q 115 505 67 414 q 251 651 163 596 q 458 706 339 706 q 622 665 553 706 q 728 553 690 625 q 767 385 767 481 q 719 185 767 276 q 584 38 671 93 q 378 -17 497 -17 m 385 124 q 509 157 457 124 q 589 247 561 190 q 617 372 617 303 q 569 516 617 467 q 449 565 522 565 q 324 532 376 565 q 244 442 272 499 q 217 317 217 386 q 265 172 217 219 q 385 124 313 124 z "},"œ":{"ha":833,"x_min":14,"x_max":825,"o":"m 196 -17 q 59 58 104 -17 q 14 251 14 133 q 33 410 14 331 q 91 557 53 490 q 185 665 129 624 q 315 706 242 706 q 414 676 374 706 q 469 592 454 647 q 544 673 494 640 q 654 706 593 706 q 783 651 742 706 q 825 503 825 596 q 817 406 825 457 q 799 310 810 356 l 490 310 q 485 235 485 268 q 501 147 485 179 q 549 115 518 115 q 601 142 581 115 q 636 217 622 169 l 768 217 q 686 45 742 107 q 529 -17 631 -17 q 434 17 474 -17 q 381 97 394 50 q 196 -17 314 -17 m 632 578 q 560 531 590 578 q 513 422 531 485 l 686 422 q 690 476 690 456 q 674 553 690 528 q 632 578 658 578 m 225 117 q 286 146 258 117 q 333 222 314 175 q 364 324 353 269 q 375 431 375 379 q 358 535 375 499 q 306 572 340 572 q 244 543 272 572 q 197 467 217 514 q 167 363 178 419 q 156 254 156 307 q 174 153 156 190 q 225 117 192 117 z "},"p":{"ha":833,"x_min":-4,"x_max":775,"o":"m -4 -306 l 139 513 q 100 561 147 561 l 42 561 l 65 689 l 192 689 q 263 663 239 689 q 288 599 288 636 l 288 590 l 296 590 q 378 674 325 642 q 513 706 432 706 q 701 623 626 706 q 775 385 775 540 q 752 235 775 307 q 683 106 729 163 q 570 16 638 49 q 413 -17 503 -17 q 283 17 335 -17 q 213 92 232 50 l 143 -306 l -4 -306 m 404 124 q 524 160 475 124 q 597 254 572 196 q 622 378 622 313 q 577 517 622 469 q 465 565 532 565 q 344 528 393 565 q 272 433 296 492 q 247 306 247 374 q 294 170 247 217 q 404 124 340 124 z "},"þ":{"ha":833,"x_min":-4,"x_max":775,"o":"m -4 -306 l 226 1000 l 374 1000 l 303 604 q 388 676 335 647 q 513 706 440 706 q 701 623 626 706 q 775 385 775 540 q 752 235 775 307 q 683 106 729 163 q 570 16 638 49 q 413 -17 503 -17 q 283 17 335 -17 q 213 92 232 50 l 143 -306 l -4 -306 m 404 124 q 524 160 475 124 q 597 254 572 196 q 622 378 622 313 q 577 517 622 469 q 465 565 532 565 q 344 528 393 565 q 272 433 296 492 q 247 306 247 374 q 294 170 247 217 q 404 124 340 124 z "},"q":{"ha":833,"x_min":65,"x_max":792,"o":"m 624 -306 q 519 -262 554 -306 q 499 -139 485 -218 l 538 79 q 458 12 508 40 q 325 -17 407 -17 q 194 19 253 -17 q 100 126 135 56 q 65 296 65 196 q 110 503 65 411 q 237 651 156 596 q 428 706 318 706 q 553 674 506 706 q 626 586 601 642 l 635 586 l 664 689 l 792 689 l 647 -129 q 653 -164 643 -150 q 686 -178 664 -178 l 738 -178 l 714 -306 l 624 -306 m 375 124 q 495 160 446 124 q 569 256 544 197 q 594 383 594 315 q 551 519 594 474 q 440 565 507 565 q 317 528 367 565 q 242 433 267 492 q 217 306 217 374 q 262 170 217 217 q 375 124 307 124 z "},"r":{"ha":833,"x_min":144,"x_max":806,"o":"m 213 0 l 304 515 q 267 561 313 561 l 144 561 l 167 689 l 357 689 q 435 660 413 689 q 456 581 458 632 l 456 576 l 463 576 q 549 676 493 646 q 693 706 606 706 l 806 706 l 778 550 l 614 550 q 492 507 542 550 q 429 385 443 464 l 360 0 l 213 0 z "},"ŕ":{"ha":833,"x_min":144,"x_max":829,"o":"m 213 0 l 304 515 q 267 561 313 561 l 144 561 l 167 689 l 357 689 q 435 660 413 689 q 456 581 458 632 l 456 576 l 463 576 q 549 676 493 646 q 693 706 606 706 l 806 706 l 778 550 l 614 550 q 492 507 542 550 q 429 385 443 464 l 360 0 l 213 0 z "},"ř":{"ha":833,"x_min":144,"x_max":806,"o":"m 213 0 l 304 515 q 267 561 313 561 l 144 561 l 167 689 l 357 689 q 435 660 413 689 q 456 581 458 632 l 456 576 l 463 576 q 549 676 493 646 q 693 706 606 706 l 806 706 l 778 550 l 614 550 q 492 507 542 550 q 429 385 443 464 l 360 0 l 213 0 z "},"ŗ":{"ha":833,"x_min":58,"x_max":806,"o":"m 213 0 l 304 515 q 267 561 313 561 l 144 561 l 167 689 l 357 689 q 435 660 413 689 q 456 581 458 632 l 456 576 l 463 576 q 549 676 493 646 q 693 706 606 706 l 806 706 l 778 550 l 614 550 q 492 507 542 550 q 429 385 443 464 l 360 0 l 213 0 m 58 -385 l 183 -94 l 371 -94 l 196 -385 l 58 -385 z "},"s":{"ha":833,"x_min":90,"x_max":713,"o":"m 369 -17 q 161 49 231 -17 q 90 217 92 115 l 242 217 q 278 138 244 169 q 381 107 311 107 q 488 133 446 107 q 531 206 531 158 q 495 270 531 250 q 382 301 460 290 q 226 364 288 315 q 164 499 164 413 q 241 649 164 593 q 454 706 318 706 q 643 649 574 706 q 710 493 713 592 l 568 493 q 531 558 567 533 q 443 583 496 583 q 346 562 383 583 q 308 500 308 540 q 342 444 308 465 q 457 411 376 422 q 622 355 560 397 q 683 218 683 313 q 598 46 683 108 q 369 -17 513 -17 z "},"ś":{"ha":833,"x_min":90,"x_max":750,"o":"m 369 -17 q 161 49 231 -17 q 90 217 92 115 l 242 217 q 278 138 244 169 q 381 107 311 107 q 488 133 446 107 q 531 206 531 158 q 495 270 531 250 q 382 301 460 290 q 226 364 288 315 q 164 499 164 413 q 241 649 164 593 q 454 706 318 706 q 643 649 574 706 q 710 493 713 592 l 568 493 q 531 558 567 533 q 443 583 496 583 q 346 562 383 583 q 308 500 308 540 q 342 444 308 465 q 457 411 376 422 q 622 355 560 397 q 683 218 683 313 q 598 46 683 108 q 369 -17 513 -17 z "},"š":{"ha":833,"x_min":90,"x_max":726,"o":"m 369 -17 q 161 49 231 -17 q 90 217 92 115 l 242 217 q 278 138 244 169 q 381 107 311 107 q 488 133 446 107 q 531 206 531 158 q 495 270 531 250 q 382 301 460 290 q 226 364 288 315 q 164 499 164 413 q 241 649 164 593 q 454 706 318 706 q 643 649 574 706 q 710 493 713 592 l 568 493 q 531 558 567 533 q 443 583 496 583 q 346 562 383 583 q 308 500 308 540 q 342 444 308 465 q 457 411 376 422 q 622 355 560 397 q 683 218 683 313 q 598 46 683 108 q 369 -17 513 -17 z "},"ş":{"ha":833,"x_min":90,"x_max":713,"o":"m 369 -17 q 161 49 231 -17 q 90 217 92 115 l 242 217 q 278 138 244 169 q 381 107 311 107 q 488 133 446 107 q 531 206 531 158 q 495 270 531 250 q 382 301 460 290 q 226 364 288 315 q 164 499 164 413 q 241 649 164 593 q 454 706 318 706 q 643 649 574 706 q 710 493 713 592 l 568 493 q 531 558 567 533 q 443 583 496 583 q 346 562 383 583 q 308 500 308 540 q 342 444 308 465 q 457 411 376 422 q 622 355 560 397 q 683 218 683 313 q 598 46 683 108 q 369 -17 513 -17 z "},"ș":{"ha":833,"x_min":90,"x_max":713,"o":"m 369 -17 q 161 49 231 -17 q 90 217 92 115 l 242 217 q 278 138 244 169 q 381 107 311 107 q 488 133 446 107 q 531 206 531 158 q 495 270 531 250 q 382 301 460 290 q 226 364 288 315 q 164 499 164 413 q 241 649 164 593 q 454 706 318 706 q 643 649 574 706 q 710 493 713 592 l 568 493 q 531 558 567 533 q 443 583 496 583 q 346 562 383 583 q 308 500 308 540 q 342 444 308 465 q 457 411 376 422 q 622 355 560 397 q 683 218 683 313 q 598 46 683 108 q 369 -17 513 -17 m 126 -385 l 251 -94 l 439 -94 l 264 -385 l 126 -385 z "},"ß":{"ha":833,"x_min":-136,"x_max":786,"o":"m -136 -306 l -112 -176 l -71 -176 q -7 -158 -28 -176 q 21 -97 14 -139 l 161 707 q 215 854 175 788 q 324 960 256 921 q 492 1000 393 1000 q 674 944 607 1000 q 742 796 742 889 q 722 710 742 744 q 674 653 703 676 q 617 613 646 631 q 568 576 588 594 q 549 533 549 558 q 573 489 549 508 q 660 436 597 469 q 751 360 717 407 q 786 249 786 314 q 715 56 786 128 q 504 -17 644 -17 q 372 17 425 -17 q 294 108 318 50 q 279 239 271 165 l 421 239 q 436 150 411 188 q 519 113 461 113 q 606 144 575 113 q 638 226 638 175 q 613 299 638 269 q 535 353 588 329 q 431 423 469 383 q 392 518 392 463 q 412 597 392 565 q 462 650 432 628 q 522 691 492 672 q 572 731 551 710 q 592 782 592 753 q 560 845 592 822 q 478 868 528 868 q 364 824 407 868 q 307 699 321 781 l 169 -90 q 92 -256 149 -206 q -89 -306 36 -306 l -136 -306 z "},"t":{"ha":833,"x_min":136,"x_max":751,"o":"m 436 0 q 283 58 335 0 q 250 225 232 115 l 310 564 l 136 564 l 158 689 l 261 689 q 357 758 332 689 l 397 869 l 511 869 l 479 689 l 751 689 l 729 564 l 457 564 l 397 228 q 410 157 390 183 q 486 131 431 131 l 650 131 l 628 0 l 436 0 z "},"ť":{"ha":833,"x_min":136,"x_max":915,"o":"m 436 0 q 283 58 335 0 q 250 225 232 115 l 310 564 l 136 564 l 158 689 l 261 689 q 357 758 332 689 l 397 869 l 511 869 l 479 689 l 751 689 l 729 564 l 457 564 l 397 228 q 410 157 390 183 q 486 131 431 131 l 650 131 l 628 0 l 436 0 m 638 828 l 742 1139 l 915 1139 l 756 828 l 638 828 z "},"ţ":{"ha":833,"x_min":136,"x_max":751,"o":"m 436 0 q 283 58 335 0 q 250 225 232 115 l 310 564 l 136 564 l 158 689 l 261 689 q 357 758 332 689 l 397 869 l 511 869 l 479 689 l 751 689 l 729 564 l 457 564 l 397 228 q 410 157 390 183 q 486 131 431 131 l 650 131 l 628 0 l 436 0 z "},"ț":{"ha":833,"x_min":136,"x_max":751,"o":"m 436 0 q 283 58 335 0 q 250 225 232 115 l 310 564 l 136 564 l 158 689 l 261 689 q 357 758 332 689 l 397 869 l 511 869 l 479 689 l 751 689 l 729 564 l 457 564 l 397 228 q 410 157 390 183 q 486 131 431 131 l 650 131 l 628 0 l 436 0 m 174 -385 l 299 -94 l 486 -94 l 311 -385 l 174 -385 z "},"u":{"ha":833,"x_min":47,"x_max":763,"o":"m 278 -17 q 145 23 199 -17 q 69 133 92 63 q 64 293 47 203 l 133 689 l 281 689 l 213 303 q 231 170 199 218 q 339 122 263 122 q 472 176 415 122 q 546 332 528 231 l 608 689 l 756 689 l 665 176 q 704 128 656 128 l 763 128 l 740 0 l 613 0 q 535 24 561 0 q 510 89 510 49 l 510 100 l 503 100 q 412 14 467 44 q 278 -17 357 -17 z "},"ú":{"ha":833,"x_min":47,"x_max":763,"o":"m 278 -17 q 145 23 199 -17 q 69 133 92 63 q 64 293 47 203 l 133 689 l 281 689 l 213 303 q 231 170 199 218 q 339 122 263 122 q 472 176 415 122 q 546 332 528 231 l 608 689 l 756 689 l 665 176 q 704 128 656 128 l 763 128 l 740 0 l 613 0 q 535 24 561 0 q 510 89 510 49 l 510 100 l 503 100 q 412 14 467 44 q 278 -17 357 -17 z "},"ŭ":{"ha":833,"x_min":47,"x_max":763,"o":"m 278 -17 q 145 23 199 -17 q 69 133 92 63 q 64 293 47 203 l 133 689 l 281 689 l 213 303 q 231 170 199 218 q 339 122 263 122 q 472 176 415 122 q 546 332 528 231 l 608 689 l 756 689 l 665 176 q 704 128 656 128 l 763 128 l 740 0 l 613 0 q 535 24 561 0 q 510 89 510 49 l 510 100 l 503 100 q 412 14 467 44 q 278 -17 357 -17 z "},"û":{"ha":833,"x_min":47,"x_max":763,"o":"m 278 -17 q 145 23 199 -17 q 69 133 92 63 q 64 293 47 203 l 133 689 l 281 689 l 213 303 q 231 170 199 218 q 339 122 263 122 q 472 176 415 122 q 546 332 528 231 l 608 689 l 756 689 l 665 176 q 704 128 656 128 l 763 128 l 740 0 l 613 0 q 535 24 561 0 q 510 89 510 49 l 510 100 l 503 100 q 412 14 467 44 q 278 -17 357 -17 z "},"ü":{"ha":833,"x_min":47,"x_max":763,"o":"m 278 -17 q 145 23 199 -17 q 69 133 92 63 q 64 293 47 203 l 133 689 l 281 689 l 213 303 q 231 170 199 218 q 339 122 263 122 q 472 176 415 122 q 546 332 528 231 l 608 689 l 756 689 l 665 176 q 704 128 656 128 l 763 128 l 740 0 l 613 0 q 535 24 561 0 q 510 89 510 49 l 510 100 l 503 100 q 412 14 467 44 q 278 -17 357 -17 z "},"ù":{"ha":833,"x_min":47,"x_max":763,"o":"m 278 -17 q 145 23 199 -17 q 69 133 92 63 q 64 293 47 203 l 133 689 l 281 689 l 213 303 q 231 170 199 218 q 339 122 263 122 q 472 176 415 122 q 546 332 528 231 l 608 689 l 756 689 l 665 176 q 704 128 656 128 l 763 128 l 740 0 l 613 0 q 535 24 561 0 q 510 89 510 49 l 510 100 l 503 100 q 412 14 467 44 q 278 -17 357 -17 z "},"ű":{"ha":833,"x_min":47,"x_max":767,"o":"m 278 -17 q 145 23 199 -17 q 69 133 92 63 q 64 293 47 203 l 133 689 l 281 689 l 213 303 q 231 170 199 218 q 339 122 263 122 q 472 176 415 122 q 546 332 528 231 l 608 689 l 756 689 l 665 176 q 704 128 656 128 l 763 128 l 740 0 l 613 0 q 535 24 561 0 q 510 89 510 49 l 510 100 l 503 100 q 412 14 467 44 q 278 -17 357 -17 z "},"ū":{"ha":833,"x_min":47,"x_max":763,"o":"m 278 -17 q 145 23 199 -17 q 69 133 92 63 q 64 293 47 203 l 133 689 l 281 689 l 213 303 q 231 170 199 218 q 339 122 263 122 q 472 176 415 122 q 546 332 528 231 l 608 689 l 756 689 l 665 176 q 704 128 656 128 l 763 128 l 740 0 l 613 0 q 535 24 561 0 q 510 89 510 49 l 510 100 l 503 100 q 412 14 467 44 q 278 -17 357 -17 z "},"ų":{"ha":833,"x_min":47,"x_max":763,"o":"m 278 -17 q 145 23 199 -17 q 69 133 92 63 q 64 293 47 203 l 133 689 l 281 689 l 213 303 q 231 170 199 218 q 339 122 263 122 q 472 176 415 122 q 546 332 528 231 l 608 689 l 756 689 l 665 176 q 704 128 656 128 l 763 128 l 740 0 l 613 0 q 535 24 561 0 q 510 89 510 49 l 510 100 l 503 100 q 412 14 467 44 q 278 -17 357 -17 z "},"ů":{"ha":833,"x_min":47,"x_max":763,"o":"m 278 -17 q 145 23 199 -17 q 69 133 92 63 q 64 293 47 203 l 133 689 l 281 689 l 213 303 q 231 170 199 218 q 339 122 263 122 q 472 176 415 122 q 546 332 528 231 l 608 689 l 756 689 l 665 176 q 704 128 656 128 l 763 128 l 740 0 l 613 0 q 535 24 561 0 q 510 89 510 49 l 510 100 l 503 100 q 412 14 467 44 q 278 -17 357 -17 z "},"ũ":{"ha":833,"x_min":47,"x_max":763,"o":"m 278 -17 q 145 23 199 -17 q 69 133 92 63 q 64 293 47 203 l 133 689 l 281 689 l 213 303 q 231 170 199 218 q 339 122 263 122 q 472 176 415 122 q 546 332 528 231 l 608 689 l 756 689 l 665 176 q 704 128 656 128 l 763 128 l 740 0 l 613 0 q 535 24 561 0 q 510 89 510 49 l 510 100 l 503 100 q 412 14 467 44 q 278 -17 357 -17 z "},"v":{"ha":833,"x_min":90,"x_max":781,"o":"m 267 0 l 90 689 l 251 689 l 379 153 l 568 461 q 594 513 585 489 q 608 565 603 536 l 629 689 l 781 689 l 758 565 q 735 472 749 508 q 693 392 721 435 l 446 0 l 267 0 z "},"w":{"ha":833,"x_min":72,"x_max":857,"o":"m 100 0 l 72 689 l 210 689 l 213 206 l 396 689 l 551 689 l 568 197 l 672 463 q 694 528 688 500 q 707 586 701 557 l 725 689 l 857 689 l 839 589 q 819 496 829 533 q 786 408 808 458 l 614 0 l 461 0 l 444 497 l 257 0 l 100 0 z "},"ẃ":{"ha":833,"x_min":72,"x_max":857,"o":"m 100 0 l 72 689 l 210 689 l 213 206 l 396 689 l 551 689 l 568 197 l 672 463 q 694 528 688 500 q 707 586 701 557 l 725 689 l 857 689 l 839 589 q 819 496 829 533 q 786 408 808 458 l 614 0 l 461 0 l 444 497 l 257 0 l 100 0 z "},"ŵ":{"ha":833,"x_min":72,"x_max":857,"o":"m 100 0 l 72 689 l 210 689 l 213 206 l 396 689 l 551 689 l 568 197 l 672 463 q 694 528 688 500 q 707 586 701 557 l 725 689 l 857 689 l 839 589 q 819 496 829 533 q 786 408 808 458 l 614 0 l 461 0 l 444 497 l 257 0 l 100 0 z "},"ẅ":{"ha":833,"x_min":72,"x_max":857,"o":"m 100 0 l 72 689 l 210 689 l 213 206 l 396 689 l 551 689 l 568 197 l 672 463 q 694 528 688 500 q 707 586 701 557 l 725 689 l 857 689 l 839 589 q 819 496 829 533 q 786 408 808 458 l 614 0 l 461 0 l 444 497 l 257 0 l 100 0 z "},"ẁ":{"ha":833,"x_min":72,"x_max":857,"o":"m 100 0 l 72 689 l 210 689 l 213 206 l 396 689 l 551 689 l 568 197 l 672 463 q 694 528 688 500 q 707 586 701 557 l 725 689 l 857 689 l 839 589 q 819 496 829 533 q 786 408 808 458 l 614 0 l 461 0 l 444 497 l 257 0 l 100 0 z "},"x":{"ha":833,"x_min":22,"x_max":819,"o":"m 22 0 l 324 353 l 224 532 q 176 561 208 561 l 85 561 l 108 689 l 204 689 q 339 608 297 689 l 428 444 l 640 689 l 819 689 l 511 338 l 606 157 q 654 128 621 128 l 754 128 l 731 0 l 624 0 q 544 19 576 0 q 489 81 513 39 l 403 243 l 197 0 l 22 0 z "},"y":{"ha":833,"x_min":74,"x_max":801,"o":"m 279 57 l 93 689 l 244 689 l 393 167 l 578 442 q 610 501 599 474 q 628 567 622 529 l 650 689 l 801 689 l 785 592 q 754 479 774 528 q 699 375 735 431 l 242 -306 l 74 -306 l 318 57 l 279 57 z "},"ý":{"ha":833,"x_min":74,"x_max":801,"o":"m 279 57 l 93 689 l 244 689 l 393 167 l 578 442 q 610 501 599 474 q 628 567 622 529 l 650 689 l 801 689 l 785 592 q 754 479 774 528 q 699 375 735 431 l 242 -306 l 74 -306 l 318 57 l 279 57 z "},"ŷ":{"ha":833,"x_min":74,"x_max":801,"o":"m 279 57 l 93 689 l 244 689 l 393 167 l 578 442 q 610 501 599 474 q 628 567 622 529 l 650 689 l 801 689 l 785 592 q 754 479 774 528 q 699 375 735 431 l 242 -306 l 74 -306 l 318 57 l 279 57 z "},"ÿ":{"ha":833,"x_min":74,"x_max":801,"o":"m 279 57 l 93 689 l 244 689 l 393 167 l 578 442 q 610 501 599 474 q 628 567 622 529 l 650 689 l 801 689 l 785 592 q 754 479 774 528 q 699 375 735 431 l 242 -306 l 74 -306 l 318 57 l 279 57 z "},"ỳ":{"ha":833,"x_min":74,"x_max":801,"o":"m 279 57 l 93 689 l 244 689 l 393 167 l 578 442 q 610 501 599 474 q 628 567 622 529 l 650 689 l 801 689 l 785 592 q 754 479 774 528 q 699 375 735 431 l 242 -306 l 74 -306 l 318 57 l 279 57 z "},"ỹ":{"ha":833,"x_min":74,"x_max":801,"o":"m 279 57 l 93 689 l 244 689 l 393 167 l 578 442 q 610 501 599 474 q 628 567 622 529 l 650 689 l 801 689 l 785 592 q 754 479 774 528 q 699 375 735 431 l 242 -306 l 74 -306 l 318 57 l 279 57 z "},"z":{"ha":833,"x_min":69,"x_max":757,"o":"m 69 0 l 93 132 l 535 554 l 172 554 l 197 689 l 757 689 l 733 557 l 286 135 l 667 135 l 642 0 l 69 0 z "},"ź":{"ha":833,"x_min":69,"x_max":757,"o":"m 69 0 l 93 132 l 535 554 l 172 554 l 197 689 l 757 689 l 733 557 l 286 135 l 667 135 l 642 0 l 69 0 z "},"ž":{"ha":833,"x_min":69,"x_max":757,"o":"m 69 0 l 93 132 l 535 554 l 172 554 l 197 689 l 757 689 l 733 557 l 286 135 l 667 135 l 642 0 l 69 0 z "},"ż":{"ha":833,"x_min":69,"x_max":757,"o":"m 69 0 l 93 132 l 535 554 l 172 554 l 197 689 l 757 689 l 733 557 l 286 135 l 667 135 l 642 0 l 69 0 z "},"ª":{"ha":833,"x_min":176,"x_max":772,"o":"m 389 403 q 238 467 300 403 q 176 658 176 532 q 210 815 176 742 q 310 935 243 889 q 474 981 376 981 q 573 957 535 981 q 625 900 611 933 l 638 968 l 767 968 l 694 569 q 729 529 689 529 l 772 529 l 753 417 l 644 417 q 585 440 606 417 q 564 493 564 463 l 564 500 l 558 500 q 495 429 536 456 q 389 403 454 403 m 432 525 q 524 553 488 525 q 578 627 560 582 q 597 724 597 672 q 565 824 597 789 q 479 860 532 860 q 388 833 425 860 q 330 763 350 806 q 310 669 310 719 q 345 563 310 601 q 432 525 381 525 z "},"º":{"ha":833,"x_min":196,"x_max":761,"o":"m 447 403 q 263 475 329 403 q 196 661 196 547 q 235 820 196 747 q 344 937 274 893 q 513 981 415 981 q 694 909 626 981 q 761 725 761 838 q 723 565 761 639 q 615 447 685 492 q 447 403 544 403 m 454 524 q 585 579 536 524 q 633 714 633 635 q 597 822 633 785 q 503 860 560 860 q 373 804 421 860 q 325 671 325 749 q 362 561 325 599 q 454 524 399 524 z "},"π":{"ha":833,"x_min":74,"x_max":860,"o":"m 96 0 l 196 564 l 74 564 l 96 689 l 860 689 l 838 564 l 715 564 l 656 228 q 668 157 647 183 q 744 131 689 131 l 761 131 l 738 0 l 694 0 q 541 58 593 0 q 508 225 489 115 l 568 564 l 343 564 l 243 0 l 96 0 z "},"¹":{"ha":833,"x_min":224,"x_max":642,"o":"m 224 389 l 242 492 l 376 492 l 436 829 l 303 808 l 322 913 l 513 972 l 578 972 l 493 492 l 642 492 l 624 389 l 224 389 z "},"²":{"ha":833,"x_min":225,"x_max":694,"o":"m 225 389 l 240 482 q 483 653 393 579 q 572 800 572 728 q 501 878 572 878 q 437 849 458 878 q 408 788 415 821 l 296 788 q 367 933 310 883 q 514 982 424 982 q 649 935 604 982 q 694 814 694 888 q 654 688 694 747 q 551 577 614 628 q 418 486 488 526 l 650 486 l 633 389 l 225 389 z "},"³":{"ha":833,"x_min":238,"x_max":692,"o":"m 440 379 q 335 403 382 379 q 263 472 288 428 q 244 574 238 517 l 358 574 q 382 513 357 539 q 447 486 407 486 q 525 508 496 486 q 554 574 554 531 q 528 628 554 611 q 460 644 503 644 l 403 644 l 421 744 l 468 744 q 547 760 518 744 q 575 810 575 776 q 556 858 575 840 q 506 875 538 875 q 443 856 468 875 q 411 804 418 836 l 297 804 q 369 934 311 886 q 519 982 426 982 q 647 938 603 982 q 692 832 692 894 q 663 746 692 779 q 597 699 635 713 l 596 694 q 647 651 626 681 q 668 575 668 621 q 610 433 668 488 q 440 379 553 379 z "},"⁴":{"ha":833,"x_min":225,"x_max":713,"o":"m 478 389 l 497 500 l 225 500 l 242 594 l 547 972 l 697 972 l 633 606 l 713 606 l 693 500 l 614 500 l 594 389 l 478 389 m 379 606 l 524 606 l 565 846 l 379 606 z "},"⁄":{"ha":833,"x_min":163,"x_max":722,"o":"m 163 447 l 179 531 l 722 531 l 707 447 l 163 447 z "},"½":{"ha":833,"x_min":161,"x_max":719,"o":"m 315 579 l 331 669 l 424 669 l 456 851 l 365 840 l 381 929 l 525 971 l 579 971 l 526 669 l 629 669 l 613 579 l 315 579 m 161 447 l 176 531 l 719 531 l 706 447 l 161 447 m 203 0 l 217 83 q 374 183 311 138 q 438 268 438 229 q 400 306 438 306 q 365 292 378 306 q 350 260 353 278 l 250 260 q 302 363 260 329 q 413 397 344 397 q 512 367 476 397 q 547 278 547 336 q 522 197 547 232 q 457 135 497 163 q 371 85 417 108 l 521 85 l 506 0 l 203 0 z "},"¼":{"ha":833,"x_min":164,"x_max":722,"o":"m 318 579 l 333 669 l 425 669 l 457 850 l 367 840 l 383 929 l 526 971 l 582 971 l 529 669 l 631 669 l 615 579 l 318 579 m 164 447 l 178 531 l 722 531 l 707 447 l 164 447 m 361 0 l 374 68 l 181 68 l 194 144 l 401 390 l 535 390 l 492 151 l 529 151 l 515 68 l 478 68 l 465 0 l 361 0 m 314 151 l 396 151 l 419 281 l 314 151 z "},"¾":{"ha":833,"x_min":163,"x_max":722,"o":"m 468 574 q 358 611 403 574 q 321 708 314 649 l 419 708 q 434 676 418 689 q 476 663 450 663 q 535 704 535 663 q 476 742 535 742 l 435 742 l 449 821 l 492 821 q 549 856 549 821 q 507 888 549 888 q 470 876 485 888 q 453 850 456 865 l 354 850 q 407 944 365 911 q 515 978 449 978 q 613 949 581 978 q 646 878 646 919 q 626 819 646 839 q 579 789 607 799 l 579 786 q 619 760 603 779 q 635 708 635 740 q 594 613 635 653 q 468 574 554 574 m 163 447 l 179 531 l 722 531 l 707 447 l 163 447 m 361 0 l 374 68 l 181 68 l 194 144 l 401 390 l 535 390 l 492 151 l 529 151 l 515 68 l 478 68 l 465 0 l 361 0 m 314 151 l 396 151 l 419 281 l 314 151 z "},".":{"ha":833,"x_min":251,"x_max":499,"o":"m 375 -8 q 288 26 324 -8 q 251 108 251 60 q 288 190 251 157 q 375 224 324 224 q 463 190 428 224 q 499 108 499 157 q 463 26 499 60 q 375 -8 428 -8 z "},",":{"ha":833,"x_min":114,"x_max":504,"o":"m 114 -174 l 306 215 l 504 215 l 267 -174 l 114 -174 z "},":":{"ha":833,"x_min":251,"x_max":593,"o":"m 375 -8 q 288 26 324 -8 q 251 108 251 60 q 288 190 251 157 q 375 224 324 224 q 463 190 428 224 q 499 108 499 157 q 463 26 499 60 q 375 -8 428 -8 m 469 531 q 382 565 418 531 q 346 647 346 599 q 382 729 346 696 q 469 763 418 763 q 558 729 522 763 q 593 647 593 696 q 558 565 593 599 q 469 531 522 531 z "},";":{"ha":833,"x_min":114,"x_max":593,"o":"m 114 -174 l 306 215 l 504 215 l 267 -174 l 114 -174 m 469 531 q 382 565 418 531 q 346 647 346 599 q 382 729 346 696 q 469 763 418 763 q 558 729 522 763 q 593 647 593 696 q 558 565 593 599 q 469 531 522 531 z "},"…":{"ha":833,"x_min":-26,"x_max":776,"o":"m 89 -8 q 7 26 40 -8 q -26 108 -26 60 q 7 190 -26 157 q 89 224 40 224 q 170 190 138 224 q 203 108 203 157 q 170 26 203 60 q 89 -8 138 -8 m 375 -8 q 293 26 326 -8 q 260 108 260 60 q 293 190 260 157 q 375 224 326 224 q 457 190 424 224 q 490 108 490 157 q 457 26 490 60 q 375 -8 424 -8 m 661 -8 q 580 26 614 -8 q 546 108 546 60 q 580 190 546 157 q 661 224 614 224 q 743 190 710 224 q 776 108 776 157 q 743 26 776 60 q 661 -8 710 -8 z "},"!":{"ha":833,"x_min":253,"x_max":608,"o":"m 339 354 l 426 972 l 608 972 l 476 354 l 339 354 m 376 -8 q 289 26 325 -8 q 253 108 253 60 q 289 190 253 157 q 376 224 325 224 q 465 190 429 224 q 500 108 500 157 q 465 26 500 60 q 376 -8 429 -8 z "},"¡":{"ha":833,"x_min":211,"x_max":583,"o":"m 460 474 q 372 507 407 474 q 336 589 336 540 q 372 672 336 638 q 460 706 407 706 q 548 672 513 706 q 583 589 583 638 q 548 507 583 540 q 460 474 513 474 m 211 -306 l 347 343 l 486 343 l 393 -306 l 211 -306 z "},"?":{"ha":833,"x_min":150,"x_max":779,"o":"m 279 306 l 308 519 l 363 519 q 558 566 483 519 q 633 713 633 613 q 591 817 633 776 q 479 857 549 857 q 353 817 403 857 q 289 706 304 778 l 150 706 q 203 851 163 788 q 317 952 244 915 q 496 989 390 989 q 647 956 583 989 q 745 863 711 922 q 779 728 779 804 q 732 562 779 631 q 606 456 685 493 q 429 414 526 418 l 404 306 l 279 306 m 314 -8 q 226 26 263 -8 q 190 108 190 60 q 226 190 190 157 q 314 224 263 224 q 402 190 367 224 q 438 108 438 157 q 402 26 438 60 q 314 -8 367 -8 z "},"¿":{"ha":833,"x_min":19,"x_max":649,"o":"m 500 474 q 412 507 447 474 q 376 589 376 540 q 412 672 376 638 q 500 706 447 706 q 588 672 553 706 q 624 589 624 638 q 588 507 624 540 q 500 474 553 474 m 304 -322 q 97 -251 174 -322 q 19 -57 19 -179 q 63 100 19 32 q 185 208 106 168 q 371 253 264 249 l 399 392 l 524 392 l 490 147 l 438 147 q 240 99 315 147 q 165 -44 165 50 q 206 -151 165 -112 q 315 -190 246 -190 q 445 -149 397 -190 q 510 -39 493 -107 l 649 -39 q 593 -183 633 -119 q 482 -285 553 -247 q 304 -322 411 -322 z "},"·":{"ha":833,"x_min":278,"x_max":525,"o":"m 401 371 q 314 405 350 371 q 278 488 278 439 q 314 569 278 536 q 401 603 350 603 q 490 569 454 603 q 525 488 525 536 q 490 405 525 439 q 401 371 454 371 z "},"•":{"ha":833,"x_min":251,"x_max":632,"o":"m 442 296 q 346 322 389 296 q 277 390 303 347 q 251 486 251 433 q 277 582 251 539 q 346 651 303 625 q 442 676 389 676 q 538 651 494 676 q 606 582 581 625 q 632 486 632 539 q 606 390 632 433 q 538 322 581 347 q 442 296 494 296 z "},"*":{"ha":833,"x_min":89,"x_max":793,"o":"m 306 140 l 392 422 l 151 260 l 89 375 l 364 488 l 131 600 l 210 711 l 414 550 l 428 832 l 576 832 l 490 550 l 732 713 l 793 599 l 518 485 l 751 372 l 672 261 l 468 422 l 454 140 l 306 140 z "},"#":{"ha":833,"x_min":29,"x_max":856,"o":"m 119 0 l 165 258 l 29 258 l 53 386 l 188 386 l 222 586 l 88 586 l 110 714 l 244 714 l 290 972 l 428 972 l 382 714 l 582 714 l 628 972 l 765 972 l 719 714 l 856 714 l 832 586 l 697 586 l 661 386 l 797 386 l 775 258 l 639 258 l 593 0 l 457 0 l 503 258 l 303 258 l 257 0 l 119 0 m 325 386 l 525 386 l 560 586 l 360 586 l 325 386 z "},"/":{"ha":833,"x_min":85,"x_max":790,"o":"m 85 -125 l 635 1056 l 790 1056 l 239 -125 l 85 -125 z "},"\\":{"ha":833,"x_min":133,"x_max":742,"o":"m 594 -125 l 133 1056 l 282 1056 l 742 -125 l 594 -125 z "},"(":{"ha":833,"x_min":199,"x_max":756,"o":"m 363 -257 q 286 -110 324 -193 q 224 73 249 -28 q 199 288 199 174 q 248 615 199 457 q 387 903 297 772 q 597 1126 476 1035 l 756 1126 l 753 1108 q 458 744 565 946 q 350 301 350 542 q 399 11 350 146 q 514 -239 447 -124 l 511 -257 l 363 -257 z "},")":{"ha":833,"x_min":100,"x_max":657,"o":"m 100 -257 l 103 -239 q 397 128 289 -75 q 506 568 506 331 q 458 861 506 726 q 342 1108 410 996 l 344 1126 l 493 1126 q 569 981 532 1064 q 632 798 607 899 q 657 582 657 697 q 606 255 657 413 q 467 -35 556 97 q 263 -257 378 -167 l 100 -257 z "},"{":{"ha":833,"x_min":154,"x_max":826,"o":"m 444 -257 q 301 -210 356 -257 q 246 -75 246 -164 q 267 55 246 -6 q 310 170 289 115 q 332 275 332 225 q 306 343 332 317 q 217 369 279 369 l 154 369 l 178 500 l 239 500 q 374 550 338 500 q 411 688 411 600 q 410 785 411 731 q 408 876 408 839 q 474 1060 408 993 q 668 1126 539 1126 l 826 1126 l 804 997 l 679 997 q 594 973 628 997 q 553 892 561 949 q 547 781 546 840 q 549 644 549 721 q 504 503 549 551 q 390 438 460 456 l 388 431 q 450 384 426 417 q 474 300 474 351 q 453 183 474 242 q 413 68 433 124 q 392 -39 392 13 q 419 -105 392 -82 q 490 -128 447 -128 l 606 -128 l 582 -257 l 444 -257 z "},"}":{"ha":833,"x_min":39,"x_max":711,"o":"m 39 -257 l 63 -128 l 188 -128 q 273 -103 240 -128 q 313 -22 306 -79 q 319 90 321 31 q 317 225 317 149 q 360 367 317 315 q 478 436 404 418 l 479 443 q 417 494 440 458 q 394 582 394 531 q 415 694 394 639 q 454 804 435 750 q 474 908 474 858 q 447 974 474 951 q 376 997 421 997 l 261 997 l 283 1126 l 421 1126 q 566 1080 511 1126 q 621 944 621 1033 q 599 814 621 875 q 555 699 576 753 q 533 594 533 644 q 561 526 533 553 q 647 500 589 500 l 711 500 l 689 369 l 628 369 q 492 319 529 369 q 454 182 454 269 q 456 85 454 139 q 458 -7 458 31 q 393 -190 458 -124 q 197 -257 328 -257 l 39 -257 z "},"[":{"ha":833,"x_min":135,"x_max":740,"o":"m 283 -257 q 173 -212 211 -257 q 149 -87 135 -167 l 336 968 q 394 1090 351 1053 q 522 1126 438 1126 l 740 1126 l 718 997 l 524 997 q 471 953 479 997 l 289 -81 q 325 -125 281 -125 l 519 -125 l 496 -257 l 283 -257 z "},"]":{"ha":833,"x_min":125,"x_max":731,"o":"m 125 -257 l 147 -128 l 342 -128 q 394 -83 386 -128 l 576 950 q 540 994 585 994 l 346 994 l 369 1126 l 582 1126 q 692 1081 654 1126 q 717 957 731 1036 l 529 -99 q 472 -220 515 -183 q 343 -257 429 -257 l 125 -257 z "},"-":{"ha":833,"x_min":190,"x_max":693,"o":"m 190 424 l 214 549 l 693 549 l 669 424 l 190 424 z "},"­":{"ha":833,"x_min":190,"x_max":693,"o":"m 190 424 l 214 549 l 693 549 l 669 424 l 190 424 z "},"–":{"ha":833,"x_min":135,"x_max":749,"o":"m 135 424 l 158 549 l 749 549 l 725 424 l 135 424 z "},"—":{"ha":833,"x_min":14,"x_max":869,"o":"m 14 424 l 36 549 l 869 549 l 847 424 l 14 424 z "},"_":{"ha":833,"x_min":10,"x_max":679,"o":"m 10 -132 l 33 0 l 679 0 l 654 -132 l 10 -132 z "},"‚":{"ha":833,"x_min":200,"x_max":556,"o":"m 200 -212 l 354 197 l 556 197 l 338 -212 l 200 -212 z "},"„":{"ha":833,"x_min":13,"x_max":693,"o":"m 13 -212 l 167 197 l 368 197 l 150 -212 l 13 -212 m 338 -212 l 492 197 l 693 197 l 475 -212 l 338 -212 z "},"“":{"ha":833,"x_min":136,"x_max":817,"o":"m 136 563 l 353 972 l 492 972 l 338 563 l 136 563 m 461 563 l 678 972 l 817 972 l 663 563 l 461 563 z "},"”":{"ha":833,"x_min":147,"x_max":828,"o":"m 147 563 l 301 972 l 503 972 l 285 563 l 147 563 m 472 563 l 626 972 l 828 972 l 610 563 l 472 563 z "},"‘":{"ha":833,"x_min":292,"x_max":647,"o":"m 292 563 l 508 972 l 647 972 l 493 563 l 292 563 z "},"’":{"ha":833,"x_min":325,"x_max":681,"o":"m 325 563 l 479 972 l 681 972 l 463 563 l 325 563 z "},"«":{"ha":833,"x_min":131,"x_max":769,"o":"m 526 131 l 401 414 l 610 689 l 769 689 l 561 410 l 560 401 l 671 131 l 526 131 m 256 131 l 131 414 l 339 689 l 499 689 l 290 410 l 289 401 l 400 131 l 256 131 z "},"»":{"ha":833,"x_min":88,"x_max":725,"o":"m 358 131 l 565 410 l 568 418 l 456 689 l 601 689 l 725 406 l 521 131 l 358 131 m 88 131 l 294 410 l 297 418 l 185 689 l 331 689 l 454 406 l 250 131 l 88 131 z "},"‹":{"ha":833,"x_min":276,"x_max":644,"o":"m 401 131 l 276 414 l 485 689 l 644 689 l 436 410 l 435 401 l 546 131 l 401 131 z "},"›":{"ha":833,"x_min":213,"x_max":579,"o":"m 213 131 l 419 410 l 422 418 l 310 689 l 456 689 l 579 406 l 375 131 l 213 131 z "},"\"":{"ha":833,"x_min":208,"x_max":767,"o":"m 208 526 l 286 972 l 450 972 l 372 526 l 208 526 m 525 526 l 603 972 l 767 972 l 689 526 l 525 526 z "},"'":{"ha":833,"x_min":367,"x_max":608,"o":"m 367 526 l 444 972 l 608 972 l 531 526 l 367 526 z "}," ":{"ha":833,"x_min":0,"x_max":0,"o":""}," ":{"ha":833,"x_min":0,"x_max":0,"o":""},"\r":{"ha":833,"x_min":0,"x_max":0,"o":""},"¢":{"ha":833,"x_min":111,"x_max":788,"o":"m 315 0 l 339 133 q 172 238 233 156 q 111 444 111 319 q 156 642 111 554 q 280 784 200 731 q 465 846 360 838 l 488 972 l 583 972 l 561 843 q 722 763 664 828 q 788 600 781 699 l 633 600 q 536 703 624 682 l 458 265 q 540 302 507 274 q 592 372 572 331 l 747 372 q 433 125 676 133 l 411 0 l 315 0 m 261 454 q 290 336 261 382 q 364 272 319 290 l 440 704 q 310 616 360 686 q 261 454 261 546 z "},"¤":{"ha":833,"x_min":139,"x_max":718,"o":"m 211 122 l 139 194 l 225 281 q 192 413 192 339 q 226 543 192 486 l 139 631 l 211 703 l 296 618 q 429 656 356 656 q 561 618 501 656 l 646 703 l 718 631 l 632 543 q 667 413 667 485 q 632 282 667 340 l 718 194 l 646 122 l 561 208 q 429 169 501 169 q 296 207 354 169 l 211 122 m 429 272 q 490 288 460 272 q 541 335 521 304 q 561 413 561 367 q 541 490 561 460 q 491 537 521 521 q 429 553 461 553 q 337 517 378 553 q 296 413 296 482 q 337 308 296 343 q 429 272 378 272 z "},"$":{"ha":833,"x_min":43,"x_max":819,"o":"m 285 -121 l 304 -11 q 103 97 164 11 q 47 299 43 182 l 201 299 q 228 187 196 235 q 328 122 260 139 l 385 450 q 210 553 267 490 q 154 717 154 617 q 196 855 154 796 q 311 949 238 914 q 479 988 385 983 l 499 1099 l 596 1099 l 576 985 q 757 899 694 969 q 815 713 819 828 l 660 713 q 633 799 663 763 q 553 850 604 836 l 501 558 q 521 551 510 554 q 642 494 589 529 q 726 409 694 460 q 757 286 757 358 q 711 124 757 192 q 585 21 665 57 q 400 -17 504 -15 l 382 -121 l 285 -121 m 310 725 q 333 651 310 682 q 410 594 356 621 l 456 854 q 349 812 389 846 q 310 725 310 778 m 599 271 q 574 349 599 314 q 476 417 550 383 l 424 117 q 552 164 506 124 q 599 271 599 204 z "},"€":{"ha":833,"x_min":1,"x_max":854,"o":"m 1 331 l 18 428 l 101 428 q 115 543 104 488 l 39 543 l 57 642 l 140 642 q 231 822 172 743 q 373 944 290 900 q 563 989 456 989 q 778 910 703 989 q 854 708 853 832 l 699 708 q 653 810 694 771 q 542 850 613 850 q 393 792 456 850 q 296 642 331 733 l 564 642 l 546 543 l 267 543 q 253 428 254 488 l 525 428 l 508 331 l 254 331 q 310 176 265 231 q 426 122 356 122 q 551 158 506 122 q 619 256 596 194 l 774 256 q 649 56 739 129 q 419 -17 560 -17 q 194 76 276 -17 q 101 331 111 169 l 1 331 z "},"ƒ":{"ha":833,"x_min":-19,"x_max":803,"o":"m -19 -306 l 4 -176 l 117 -176 q 190 -156 165 -176 q 222 -89 214 -136 l 338 564 l 164 564 l 185 689 l 360 689 l 376 785 q 459 950 397 900 q 635 1000 521 1000 l 803 1000 l 779 871 l 629 871 q 556 851 581 871 q 524 783 532 832 l 507 689 l 747 689 l 725 564 l 485 564 l 369 -90 q 328 -215 356 -167 q 248 -284 300 -262 q 111 -306 196 -306 l -19 -306 z "},"₽":{"ha":833,"x_min":11,"x_max":853,"o":"m 104 0 l 133 163 l 11 163 l 29 269 l 151 269 l 276 972 l 560 972 q 778 896 704 972 q 853 701 853 819 q 751 464 853 547 q 469 381 649 381 l 318 381 l 299 269 l 560 269 l 542 163 l 279 163 l 251 0 l 104 0 m 342 513 l 485 513 q 643 560 586 513 q 700 696 700 607 q 662 801 700 763 q 542 840 624 840 l 400 840 l 342 513 z "},"£":{"ha":833,"x_min":38,"x_max":822,"o":"m 38 0 l 54 89 q 173 226 131 154 q 215 383 215 297 q 215 401 215 393 l 67 401 l 85 508 l 201 508 q 191 579 196 543 q 186 653 186 615 q 277 897 186 806 q 531 989 368 989 q 692 951 626 989 q 790 848 758 914 q 815 696 822 782 l 676 696 q 638 817 681 769 q 518 864 594 864 q 381 809 433 864 q 329 665 329 754 q 334 584 329 622 q 346 508 339 546 l 606 508 l 588 401 l 357 401 q 357 386 357 394 q 329 247 357 306 q 244 135 301 188 l 244 126 l 715 126 l 693 0 l 38 0 z "},"¥":{"ha":833,"x_min":67,"x_max":922,"o":"m 67 211 l 86 324 l 340 324 l 349 369 l 326 431 l 106 431 l 125 543 l 286 543 l 133 972 l 293 972 l 444 526 l 749 972 l 922 972 l 618 543 l 779 543 l 760 431 l 539 431 l 496 369 l 488 324 l 740 324 l 721 211 l 467 211 l 429 0 l 282 0 l 319 211 l 67 211 z "},"∕":{"ha":833,"x_min":85,"x_max":790,"o":"m 85 -125 l 635 1056 l 790 1056 l 239 -125 l 85 -125 z "},"+":{"ha":833,"x_min":107,"x_max":776,"o":"m 319 164 l 364 419 l 107 419 l 131 553 l 388 553 l 432 808 l 564 808 l 519 553 l 776 553 l 753 419 l 496 419 l 451 164 l 319 164 z "},"−":{"ha":833,"x_min":107,"x_max":776,"o":"m 107 419 l 131 553 l 776 553 l 753 419 l 107 419 z "},"×":{"ha":833,"x_min":89,"x_max":794,"o":"m 172 172 l 89 272 l 349 493 l 168 708 l 271 796 l 451 579 l 711 800 l 794 700 l 535 481 l 715 264 l 613 176 l 432 393 l 172 172 z "},"÷":{"ha":833,"x_min":107,"x_max":776,"o":"m 107 419 l 131 553 l 776 553 l 753 419 l 107 419 m 390 75 q 303 109 339 75 q 267 192 267 143 q 303 274 267 240 q 390 307 339 307 q 478 274 443 307 q 514 192 514 240 q 478 109 514 143 q 390 75 443 75 m 494 665 q 407 699 443 665 q 371 782 371 733 q 407 864 371 831 q 494 897 443 897 q 583 864 547 897 q 618 782 618 831 q 583 699 618 733 q 494 665 547 665 z "},"=":{"ha":833,"x_min":76,"x_max":807,"o":"m 138 594 l 161 726 l 807 726 l 783 594 l 138 594 m 76 246 l 100 378 l 746 378 l 722 246 l 76 246 z "},"≠":{"ha":833,"x_min":76,"x_max":807,"o":"m 94 56 l 215 246 l 76 246 l 100 378 l 299 378 l 436 594 l 138 594 l 161 726 l 519 726 l 640 918 l 789 918 l 668 726 l 807 726 l 783 594 l 585 594 l 447 378 l 746 378 l 722 246 l 364 246 l 243 56 l 94 56 z "},">":{"ha":833,"x_min":94,"x_max":728,"o":"m 94 107 l 525 490 l 526 500 l 232 864 l 422 864 l 728 488 l 304 107 l 94 107 z "},"<":{"ha":833,"x_min":156,"x_max":789,"o":"m 464 107 l 156 485 l 579 864 l 789 864 l 358 481 l 357 471 l 651 107 l 464 107 z "},"≥":{"ha":833,"x_min":32,"x_max":753,"o":"m 129 218 l 539 490 l 542 500 l 229 756 l 449 756 l 753 489 l 361 218 l 129 218 m 32 0 l 56 133 l 701 133 l 678 0 l 32 0 z "},"≤":{"ha":833,"x_min":32,"x_max":753,"o":"m 449 218 l 129 489 l 524 756 l 753 756 l 354 488 l 351 476 l 653 218 l 449 218 m 32 0 l 56 133 l 701 133 l 678 0 l 32 0 z "},"±":{"ha":833,"x_min":32,"x_max":776,"o":"m 332 242 l 364 419 l 107 419 l 131 553 l 388 553 l 419 731 l 551 731 l 519 553 l 776 553 l 753 419 l 496 419 l 464 242 l 332 242 m 32 0 l 56 133 l 701 133 l 678 0 l 32 0 z "},"≈":{"ha":833,"x_min":67,"x_max":818,"o":"m 590 543 q 516 556 549 543 q 454 586 483 569 q 399 616 425 603 q 343 629 372 629 q 284 606 308 629 q 249 542 260 582 l 124 542 q 202 705 143 650 q 351 760 261 760 q 426 747 393 760 q 488 717 458 733 q 543 687 517 700 q 599 674 569 674 q 658 698 633 674 q 693 763 683 722 l 818 763 q 740 598 799 653 q 590 543 681 543 m 533 224 q 459 237 492 224 q 397 267 426 250 q 342 297 368 283 q 286 310 315 310 q 227 286 251 310 q 192 222 203 263 l 67 222 q 145 385 86 331 q 294 440 204 440 q 369 427 336 440 q 431 397 401 414 q 486 367 460 381 q 542 354 513 354 q 601 378 576 354 q 636 443 626 403 l 761 443 q 683 278 742 333 q 533 224 624 224 z "},"~":{"ha":833,"x_min":88,"x_max":782,"o":"m 554 335 q 480 348 513 335 q 418 378 447 361 q 363 408 389 394 q 307 421 336 421 q 248 397 272 421 q 213 333 224 374 l 88 333 q 166 497 107 442 q 315 551 225 551 q 390 538 357 551 q 451 508 422 525 q 507 478 481 492 q 563 465 533 465 q 622 490 597 465 q 657 554 647 514 l 782 554 q 703 390 763 444 q 554 335 644 335 z "},"¬":{"ha":833,"x_min":107,"x_max":776,"o":"m 576 164 l 621 419 l 107 419 l 131 553 l 776 553 l 708 164 l 576 164 z "},"^":{"ha":833,"x_min":82,"x_max":807,"o":"m 82 503 l 451 972 l 599 972 l 807 503 l 664 503 l 511 842 l 504 842 l 243 503 l 82 503 z "},"∞":{"ha":833,"x_min":26,"x_max":826,"o":"m 226 201 q 84 253 142 201 q 26 400 26 306 q 85 545 26 493 q 226 597 144 597 q 341 564 296 597 q 421 486 386 531 q 506 566 453 535 q 626 597 558 597 q 769 545 711 597 q 826 400 826 493 q 767 254 826 307 q 621 201 707 201 q 510 233 556 201 q 429 308 465 265 q 346 231 397 261 q 226 201 294 201 m 136 400 q 163 332 136 357 q 231 307 190 307 q 308 331 275 307 q 364 394 342 356 q 301 464 333 435 q 225 493 268 493 q 163 469 189 493 q 136 400 136 444 m 622 493 q 544 466 579 492 q 485 399 508 440 q 547 334 514 361 q 628 307 581 307 q 692 332 667 307 q 717 400 717 357 q 691 469 717 444 q 622 493 665 494 z "},"∫":{"ha":833,"x_min":-19,"x_max":803,"o":"m -19 -306 l 4 -176 l 117 -176 q 190 -156 165 -176 q 222 -89 214 -136 l 376 785 q 459 950 397 900 q 635 1000 521 1000 l 803 1000 l 779 871 l 629 871 q 556 851 581 871 q 524 783 532 832 l 369 -90 q 328 -215 356 -167 q 248 -284 300 -262 q 111 -306 196 -306 l -19 -306 z "},"Ω":{"ha":833,"x_min":-6,"x_max":846,"o":"m -6 0 l 15 117 l 206 117 l 213 158 q 113 310 157 215 q 68 524 68 404 q 120 757 68 651 q 271 926 172 863 q 508 989 369 989 q 687 942 611 989 q 804 814 763 896 q 846 624 846 732 q 808 431 846 521 q 704 271 769 340 q 556 158 639 201 l 549 117 l 739 117 l 717 0 l 394 0 l 433 219 q 626 385 557 288 q 694 611 694 482 q 638 784 694 718 q 490 850 581 850 q 342 806 403 850 q 251 689 282 763 q 219 528 219 615 q 256 347 219 419 q 356 219 293 274 l 317 0 l -6 0 z "},"∆":{"ha":833,"x_min":-3,"x_max":736,"o":"m -3 0 l 19 124 l 440 972 l 614 972 l 736 124 l 714 0 l -3 0 m 188 132 l 590 132 l 501 783 l 494 783 l 188 132 z "},"∏":{"ha":833,"x_min":72,"x_max":910,"o":"m 72 0 l 221 840 l 122 840 l 146 972 l 910 972 l 886 840 l 788 840 l 639 0 l 492 0 l 640 840 l 368 840 l 219 0 l 72 0 z "},"∑":{"ha":833,"x_min":3,"x_max":824,"o":"m 3 -139 l 29 10 l 442 431 l 185 833 l 208 972 l 824 972 l 801 847 l 346 847 l 586 457 l 571 374 l 196 -14 l 675 -14 l 651 -139 l 3 -139 z "},"√":{"ha":833,"x_min":60,"x_max":931,"o":"m 172 0 l 60 515 l 217 515 l 279 168 l 693 972 l 931 972 l 908 847 l 789 847 l 343 0 l 172 0 z "},"µ":{"ha":833,"x_min":-43,"x_max":763,"o":"m -43 -306 l 133 689 l 281 689 l 213 303 q 231 170 199 218 q 339 122 263 122 q 472 176 415 122 q 546 332 528 231 l 608 689 l 756 689 l 665 176 q 704 128 656 128 l 763 128 l 740 0 l 613 0 q 535 24 561 0 q 510 89 510 49 l 510 103 l 503 103 q 417 15 467 47 q 288 -17 368 -17 q 217 -3 253 -17 q 165 35 182 11 l 106 -306 l -43 -306 z "},"∂":{"ha":833,"x_min":72,"x_max":779,"o":"m 379 -17 q 215 26 283 -17 q 109 142 146 68 q 72 313 72 217 q 97 457 72 388 q 169 582 122 526 q 282 669 217 638 q 428 701 347 701 q 632 604 558 701 l 642 604 q 549 769 618 697 q 381 881 481 842 l 449 1000 q 688 810 597 944 q 779 468 779 676 q 752 285 779 372 q 673 129 725 197 q 547 22 621 61 q 379 -17 472 -17 m 396 122 q 508 160 456 122 q 593 272 560 199 q 631 447 626 344 q 553 533 597 503 q 442 563 508 563 q 325 530 374 563 q 251 442 276 497 q 225 318 225 386 q 273 176 225 229 q 396 122 321 122 z "},"%":{"ha":833,"x_min":-10,"x_max":893,"o":"m 278 558 q 146 611 197 558 q 94 749 94 664 q 125 872 94 818 q 210 958 156 926 q 335 989 264 989 q 465 938 414 989 q 517 800 517 886 q 487 676 517 731 q 403 590 457 621 q 278 558 349 558 m 288 656 q 376 697 344 656 q 408 793 408 739 q 385 863 408 835 q 322 892 363 892 q 237 854 271 892 q 203 756 203 817 q 225 684 203 713 q 288 656 247 656 m 56 90 l -10 172 l 828 882 l 893 800 l 56 90 m 551 -17 q 419 36 471 -17 q 368 174 368 89 q 399 297 368 243 q 483 383 429 351 q 608 414 538 414 q 740 363 689 414 q 790 225 790 311 q 760 101 790 156 q 676 15 731 46 q 551 -17 622 -17 m 561 81 q 651 122 619 81 q 683 218 683 164 q 660 288 683 260 q 597 317 636 317 q 511 279 546 317 q 476 181 476 242 q 499 109 476 138 q 561 81 521 81 z "},"‰":{"ha":833,"x_min":25,"x_max":813,"o":"m 278 558 q 146 611 197 558 q 94 749 94 664 q 125 872 94 818 q 210 958 156 926 q 335 989 264 989 q 465 938 414 989 q 517 800 517 886 q 487 676 517 731 q 403 590 457 621 q 278 558 349 558 m 288 656 q 376 697 344 656 q 408 793 408 739 q 385 863 408 835 q 322 892 363 892 q 237 854 271 892 q 203 756 203 817 q 225 684 203 713 q 288 656 247 656 m 58 313 l 25 396 l 781 733 l 813 651 l 58 313 m 322 -17 q 209 33 250 -17 q 168 169 168 83 q 194 290 168 235 q 269 380 221 346 q 385 414 318 414 q 459 394 426 414 q 510 342 492 374 q 571 394 533 375 q 654 414 608 414 q 765 364 724 414 q 807 228 807 314 q 783 108 807 164 q 710 18 758 53 q 590 -17 661 -17 q 513 3 546 -17 q 464 54 479 24 q 406 3 440 24 q 322 -17 371 -17 m 336 81 q 391 103 368 81 q 426 158 414 125 q 438 225 438 192 q 419 292 438 268 q 374 317 401 317 q 321 295 343 317 q 286 241 299 274 q 274 174 274 208 q 292 104 274 128 q 336 81 310 81 m 601 81 q 655 102 633 81 q 688 157 676 124 q 699 222 699 190 q 682 292 699 267 q 635 317 665 317 q 561 273 588 317 q 535 172 535 229 q 554 105 535 129 q 601 81 574 81 z "},"◊":{"ha":833,"x_min":68,"x_max":815,"o":"m 268 0 l 68 486 l 440 972 l 615 972 l 815 486 l 443 0 l 268 0 m 368 135 l 375 135 l 653 497 l 515 838 l 507 838 l 229 476 l 368 135 z "},"@":{"ha":833,"x_min":54,"x_max":854,"o":"m 446 -131 q 240 -75 328 -131 q 103 85 151 -19 q 54 336 54 190 q 86 569 54 456 q 182 773 118 682 q 340 918 246 864 q 558 972 433 972 q 722 935 654 972 q 822 832 790 897 q 839 682 854 767 l 744 149 l 639 149 l 639 213 l 633 213 q 576 157 611 178 q 482 136 542 136 q 338 203 396 136 q 281 381 281 269 q 313 543 281 469 q 408 661 344 617 q 564 706 471 706 q 653 684 615 706 q 708 626 690 663 l 718 685 q 682 810 732 760 q 542 860 632 860 q 395 817 461 860 q 282 702 329 775 q 209 538 235 629 q 183 347 183 446 q 215 159 183 242 q 309 29 246 76 q 467 -18 372 -18 l 653 -18 l 633 -131 l 446 -131 m 515 240 q 603 270 567 240 q 658 351 639 300 q 676 463 676 401 q 645 565 676 528 q 567 601 614 601 q 447 540 490 601 q 403 388 403 478 q 435 278 403 317 q 515 240 468 240 z "},"&":{"ha":833,"x_min":21,"x_max":829,"o":"m 289 -15 q 151 19 213 -15 q 56 111 90 53 q 21 244 21 169 q 81 439 21 360 q 247 567 142 518 q 208 719 208 651 q 286 914 208 839 q 497 989 364 989 q 624 961 569 989 q 706 882 678 933 q 725 758 735 831 l 583 758 q 556 835 586 807 q 479 863 525 863 q 385 824 418 863 q 353 726 353 785 q 408 568 353 657 l 560 325 l 672 504 l 829 504 l 650 222 q 636 201 643 211 l 761 0 l 600 0 l 547 85 q 440 10 500 35 q 289 -15 379 -15 m 171 264 q 209 158 171 200 q 310 117 247 117 q 399 137 363 117 q 474 201 436 157 l 308 461 q 208 380 246 429 q 171 264 171 331 z "},"¶":{"ha":833,"x_min":135,"x_max":840,"o":"m 332 -139 l 431 415 l 419 415 q 210 485 285 415 q 135 664 135 554 q 235 889 135 806 q 518 972 335 972 l 840 972 l 643 -139 l 543 -139 l 724 881 l 613 881 l 432 -139 l 332 -139 z "},"§":{"ha":833,"x_min":14,"x_max":811,"o":"m 307 -322 q 151 -288 219 -322 q 49 -192 83 -254 q 25 -47 14 -131 l 181 -47 q 213 -149 175 -107 q 322 -190 250 -190 q 451 -153 404 -190 q 499 -51 499 -115 q 453 47 499 8 q 303 122 407 86 q 190 178 240 146 q 109 259 139 211 q 79 372 79 307 q 114 492 79 439 q 203 579 149 546 q 168 704 168 638 q 213 860 168 797 q 337 956 258 924 q 515 989 415 989 q 676 957 608 989 q 778 864 744 925 q 799 714 811 803 l 643 714 q 612 816 650 775 q 496 857 574 857 q 374 823 424 857 q 325 725 325 789 q 367 625 325 665 q 519 547 410 585 q 683 458 618 515 q 747 307 747 400 q 711 180 747 233 q 621 92 675 126 q 656 -24 656 38 q 560 -242 656 -162 q 307 -322 465 -322 m 438 222 q 536 175 493 203 q 588 285 588 221 q 532 380 588 346 q 363 454 476 414 q 285 493 321 469 q 248 449 263 475 q 233 392 233 424 q 278 299 233 336 q 438 222 324 261 z "},"©":{"ha":833,"x_min":39,"x_max":844,"o":"m 442 83 q 236 136 328 83 q 92 281 144 189 q 39 486 39 372 q 92 692 39 601 q 236 836 144 783 q 442 889 328 889 q 648 836 557 889 q 792 692 739 783 q 844 486 844 601 q 792 281 844 372 q 648 136 739 189 q 442 83 557 83 m 442 146 q 615 190 539 146 q 735 312 690 235 q 779 486 779 389 q 735 661 779 585 q 615 782 690 738 q 442 826 539 826 q 269 782 346 826 q 149 661 193 738 q 104 486 104 585 q 149 312 104 389 q 269 190 193 235 q 442 146 346 146 m 440 236 q 283 301 347 236 q 219 486 219 367 q 250 622 219 567 q 331 707 281 678 q 440 736 381 736 q 578 693 528 736 q 643 578 629 650 l 572 578 q 526 647 558 622 q 440 672 493 672 q 335 627 381 672 q 289 486 289 582 q 335 344 289 390 q 440 299 381 299 q 531 325 497 299 q 576 394 565 351 l 643 394 q 574 278 626 319 q 440 236 522 236 z "},"®":{"ha":833,"x_min":39,"x_max":844,"o":"m 442 83 q 236 136 328 83 q 92 281 144 189 q 39 486 39 372 q 92 692 39 601 q 236 836 144 783 q 442 889 328 889 q 648 836 557 889 q 792 692 739 783 q 844 486 844 601 q 792 281 844 372 q 648 136 739 189 q 442 83 557 83 m 442 146 q 615 190 539 146 q 735 312 690 235 q 779 486 779 389 q 735 661 779 585 q 615 782 690 738 q 442 826 539 826 q 269 782 346 826 q 149 661 193 738 q 104 486 104 585 q 149 312 104 389 q 269 190 193 235 q 442 146 346 146 m 296 243 l 296 729 l 444 729 q 568 690 528 729 q 608 589 608 650 q 585 506 608 542 q 513 457 561 471 l 622 243 l 544 243 l 443 447 l 365 447 l 365 243 l 296 243 m 365 511 l 443 511 q 518 533 494 511 q 542 589 542 556 q 519 644 542 624 q 443 665 496 665 l 365 665 l 365 511 z "},"™":{"ha":833,"x_min":121,"x_max":924,"o":"m 463 486 l 549 972 l 650 972 l 696 764 l 811 972 l 924 972 l 838 486 l 743 486 l 794 779 l 721 638 l 640 638 l 610 781 l 557 486 l 463 486 m 182 486 l 251 881 l 121 881 l 138 972 l 501 972 l 485 881 l 354 881 l 285 486 l 182 486 z "},"°":{"ha":833,"x_min":281,"x_max":704,"o":"m 493 565 q 388 591 436 565 q 310 665 339 617 q 281 776 281 713 q 310 888 281 840 q 388 963 339 936 q 493 989 436 989 q 599 963 551 989 q 676 888 647 936 q 704 776 704 840 q 676 665 704 713 q 599 591 647 617 q 493 565 551 565 m 493 665 q 568 696 536 665 q 600 778 600 726 q 568 860 600 831 q 493 890 536 890 q 418 860 450 890 q 386 778 386 831 q 418 696 386 726 q 493 665 450 665 z "},"|":{"ha":833,"x_min":217,"x_max":606,"o":"m 217 -375 l 458 1000 l 606 1000 l 364 -375 l 217 -375 z "},"¦":{"ha":833,"x_min":217,"x_max":606,"o":"m 360 433 l 458 1000 l 606 1000 l 507 433 l 360 433 m 217 -375 l 317 192 l 464 192 l 364 -375 l 217 -375 z "},"†":{"ha":833,"x_min":211,"x_max":763,"o":"m 324 219 l 407 686 l 211 686 l 232 804 l 426 804 l 457 972 l 599 972 l 568 804 l 763 804 l 743 686 l 547 686 l 465 219 l 324 219 z "},"ℓ":{"ha":833,"x_min":75,"x_max":756,"o":"m 499 0 q 258 76 344 0 q 172 294 172 151 q 75 275 125 283 l 99 406 q 179 422 140 413 q 227 646 192 543 q 315 826 263 749 q 432 946 367 903 q 569 989 497 989 q 709 940 663 989 q 756 803 756 890 q 702 610 756 699 q 551 453 649 522 q 319 336 453 383 q 319 310 319 324 q 368 178 319 222 q 501 132 417 133 l 667 132 l 643 0 l 499 0 m 565 863 q 475 815 522 863 q 389 679 428 767 q 332 474 350 592 q 551 623 478 536 q 624 796 624 710 q 565 863 624 863 z "},"‡":{"ha":833,"x_min":158,"x_max":763,"o":"m 324 219 l 354 388 l 158 388 l 178 506 l 374 506 l 407 686 l 211 686 l 231 804 l 426 804 l 457 972 l 597 972 l 567 804 l 763 804 l 742 686 l 547 686 l 514 506 l 710 506 l 690 388 l 494 388 l 464 219 l 324 219 z "},"℮":{"ha":833,"x_min":56,"x_max":819,"o":"m 438 74 q 242 121 328 74 q 106 258 156 168 q 56 479 56 349 q 103 685 56 593 q 238 831 151 776 q 439 885 325 885 q 647 832 563 885 q 776 694 732 779 q 819 513 819 608 l 819 461 l 193 461 l 193 253 q 288 166 228 201 q 438 131 349 131 q 615 178 536 131 q 732 311 693 226 l 801 311 q 660 138 754 201 q 438 74 567 74 m 193 529 l 688 529 l 688 706 q 577 797 640 767 q 439 826 514 826 q 299 797 361 826 q 193 706 236 767 l 193 529 z "},"̈":{"ha":0,"x_min":292,"x_max":728,"o":"m 642 783 q 580 810 604 783 q 556 871 556 836 q 580 933 556 907 q 642 958 604 958 q 703 933 678 958 q 728 871 728 907 q 703 810 728 836 q 642 783 678 783 m 378 783 q 317 810 342 783 q 292 871 292 836 q 317 933 292 907 q 378 958 342 958 q 439 933 414 958 q 464 871 464 907 q 439 810 464 836 q 378 783 414 783 z "},"̇":{"ha":0,"x_min":400,"x_max":629,"o":"m 515 794 q 433 826 467 794 q 400 903 400 857 q 433 979 400 949 q 515 1010 467 1010 q 597 979 564 1010 q 629 903 629 949 q 597 826 629 857 q 515 794 564 794 z "},"̀":{"ha":0,"x_min":361,"x_max":660,"o":"m 639 742 l 361 893 l 385 1024 l 660 858 l 639 742 z "},"́":{"ha":0,"x_min":335,"x_max":688,"o":"m 335 742 l 358 874 l 688 1024 l 663 879 l 335 742 z "},"̋":{"ha":0,"x_min":269,"x_max":751,"o":"m 494 767 l 619 989 l 751 989 l 599 767 l 494 767 m 269 767 l 394 989 l 525 989 l 374 767 l 269 767 z "},"̂":{"ha":0,"x_min":293,"x_max":707,"o":"m 293 760 l 315 882 l 528 989 l 707 874 l 686 760 l 518 871 l 511 871 l 293 760 z "},"̌":{"ha":0,"x_min":314,"x_max":726,"o":"m 489 760 l 314 878 l 333 989 l 503 879 l 510 879 l 726 989 l 704 864 l 489 760 z "},"̆":{"ha":0,"x_min":311,"x_max":735,"o":"m 501 763 q 392 790 436 763 q 330 863 349 817 q 319 963 311 908 l 322 978 l 422 978 q 440 898 414 926 q 511 869 465 869 q 592 897 560 869 q 635 978 625 925 l 735 978 l 731 958 q 655 810 714 858 q 501 763 596 763 z "},"̊":{"ha":0,"x_min":365,"x_max":668,"o":"m 517 767 q 410 807 454 767 q 365 915 365 847 q 410 1025 365 985 q 517 1065 454 1065 q 624 1025 579 1065 q 668 915 668 985 q 624 807 668 847 q 517 767 579 767 m 517 838 q 571 858 549 838 q 593 915 593 879 q 571 973 593 951 q 517 994 549 994 q 463 973 485 994 q 440 915 440 951 q 463 858 440 879 q 517 838 485 838 z "},"̃":{"ha":0,"x_min":263,"x_max":750,"o":"m 590 796 q 520 811 549 796 q 468 842 492 826 q 419 857 444 857 q 376 841 393 857 q 351 799 358 825 l 263 799 q 316 913 272 872 q 421 954 360 954 q 490 939 461 954 q 542 908 518 924 q 592 893 567 893 q 637 910 619 893 q 660 953 654 926 l 750 953 q 698 838 740 881 q 590 796 656 796 z "},"̄":{"ha":0,"x_min":264,"x_max":756,"o":"m 264 818 l 283 926 l 756 926 l 736 818 l 264 818 z "},"̒":{"ha":0,"x_min":367,"x_max":669,"o":"m 367 783 l 540 1057 l 669 1057 l 547 783 l 367 783 z "},"̦":{"ha":0,"x_min":160,"x_max":472,"o":"m 160 -385 l 285 -94 l 472 -94 l 297 -385 l 160 -385 z "},"̧":{"ha":0,"x_min":124,"x_max":492,"o":"m 124 -362 l 139 -274 l 292 -274 q 353 -258 329 -274 q 376 -211 376 -242 q 310 -161 376 -161 l 301 -161 q 247 -140 263 -161 q 238 -86 232 -118 l 254 10 l 350 10 l 339 -50 q 361 -79 333 -79 q 458 -112 424 -79 q 492 -197 492 -144 q 434 -320 492 -278 q 289 -362 376 -362 l 124 -362 z "},"̨":{"ha":0,"x_min":199,"x_max":488,"o":"m 343 -299 q 242 -261 285 -299 q 199 -158 199 -224 q 245 -40 199 -85 q 360 35 292 4 l 453 76 l 488 0 l 414 -39 q 347 -83 376 -58 q 318 -144 318 -108 q 335 -183 318 -168 q 375 -197 351 -197 q 461 -176 413 -197 l 442 -279 q 398 -294 421 -289 q 343 -299 375 -299 z "},"´":{"ha":833,"x_min":335,"x_max":688,"o":"m 335 742 l 358 874 l 688 1024 l 663 879 l 335 742 z "},"˘":{"ha":833,"x_min":311,"x_max":735,"o":"m 501 763 q 392 790 436 763 q 330 863 349 817 q 319 963 311 908 l 322 978 l 422 978 q 440 898 414 926 q 511 869 465 869 q 592 897 560 869 q 635 978 625 925 l 735 978 l 731 958 q 655 810 714 858 q 501 763 596 763 z "},"ˇ":{"ha":833,"x_min":314,"x_max":726,"o":"m 489 760 l 314 878 l 333 989 l 503 879 l 510 879 l 726 989 l 704 864 l 489 760 z "},"¸":{"ha":833,"x_min":124,"x_max":492,"o":"m 124 -362 l 139 -274 l 292 -274 q 353 -258 329 -274 q 376 -211 376 -242 q 310 -161 376 -161 l 301 -161 q 247 -140 263 -161 q 238 -86 232 -118 l 254 10 l 350 10 l 339 -50 q 361 -79 333 -79 q 458 -112 424 -79 q 492 -197 492 -144 q 434 -320 492 -278 q 289 -362 376 -362 l 124 -362 z "},"ˆ":{"ha":833,"x_min":293,"x_max":707,"o":"m 293 760 l 315 882 l 528 989 l 707 874 l 686 760 l 518 871 l 511 871 l 293 760 z "},"¨":{"ha":833,"x_min":292,"x_max":728,"o":"m 642 783 q 580 810 604 783 q 556 871 556 836 q 580 933 556 907 q 642 958 604 958 q 703 933 678 958 q 728 871 728 907 q 703 810 728 836 q 642 783 678 783 m 378 783 q 317 810 342 783 q 292 871 292 836 q 317 933 292 907 q 378 958 342 958 q 439 933 414 958 q 464 871 464 907 q 439 810 464 836 q 378 783 414 783 z "},"˙":{"ha":833,"x_min":400,"x_max":629,"o":"m 515 794 q 433 826 467 794 q 400 903 400 857 q 433 979 400 949 q 515 1010 467 1010 q 597 979 564 1010 q 629 903 629 949 q 597 826 629 857 q 515 794 564 794 z "},"`":{"ha":833,"x_min":361,"x_max":660,"o":"m 639 742 l 361 893 l 385 1024 l 660 858 l 639 742 z "},"˝":{"ha":833,"x_min":269,"x_max":751,"o":"m 494 767 l 619 989 l 751 989 l 599 767 l 494 767 m 269 767 l 394 989 l 525 989 l 374 767 l 269 767 z "},"¯":{"ha":833,"x_min":264,"x_max":756,"o":"m 264 818 l 283 926 l 756 926 l 736 818 l 264 818 z "},"˛":{"ha":833,"x_min":199,"x_max":488,"o":"m 343 -299 q 242 -261 285 -299 q 199 -158 199 -224 q 245 -40 199 -85 q 360 35 292 4 l 453 76 l 488 0 l 414 -39 q 347 -83 376 -58 q 318 -144 318 -108 q 335 -183 318 -168 q 375 -197 351 -197 q 461 -176 413 -197 l 442 -279 q 398 -294 421 -289 q 343 -299 375 -299 z "},"˚":{"ha":833,"x_min":365,"x_max":668,"o":"m 517 767 q 410 807 454 767 q 365 915 365 847 q 410 1025 365 985 q 517 1065 454 1065 q 624 1025 579 1065 q 668 915 668 985 q 624 807 668 847 q 517 767 579 767 m 517 838 q 571 858 549 838 q 593 915 593 879 q 571 973 593 951 q 517 994 549 994 q 463 973 485 994 q 440 915 440 951 q 463 858 440 879 q 517 838 485 838 z "},"˜":{"ha":833,"x_min":263,"x_max":750,"o":"m 590 796 q 520 811 549 796 q 468 842 492 826 q 419 857 444 857 q 376 841 393 857 q 351 799 358 825 l 263 799 q 316 913 272 872 q 421 954 360 954 q 490 939 461 954 q 542 908 518 924 q 592 893 567 893 q 637 910 619 893 q 660 953 654 926 l 750 953 q 698 838 740 881 q 590 796 656 796 z "}}}
